<svg xmlns="http://www.w3.org/2000/svg" viewBox="0 0 88.5 87.53">
  <defs>
    <style>
      .cls-1 {
        fill: #56595f;
      }
    </style>
  </defs>
  <title>Cup</title>
  <g id="Layer_2" data-name="Layer 2">
    <g id="Layer_1-2" data-name="Layer 1">
      <path class="cls-1" d="M88.5,31.85A8.51,8.51,0,0,1,80,40.36l-.36,0v0a2.91,2.91,0,1,1-.37-5.8,2.86,2.86,0,0,1,.45,0V34.5l.28,0a2.67,2.67,0,0,0,2.68-2.67c0-.09,0-.17,0-.26h0V22.86H74.89v8.75c0,.1,0,.2,0,.3A30.63,30.63,0,0,1,47.17,61.13v12.3h9.24a2.92,2.92,0,1,1,0,5.83H32.09a2.92,2.92,0,0,1,0-5.83h9.24V61.13A30.63,30.63,0,0,1,13.62,30.63V22.85H5.84v8.73h0a2.55,2.55,0,0,0,0,.26,2.67,2.67,0,0,0,2.68,2.67l.28,0v.07a2.84,2.84,0,0,1,.44,0,2.92,2.92,0,1,1,0,5.83,2.77,2.77,0,0,1-.37,0v0l-.36,0A8.51,8.51,0,0,1,0,31.85c0-.05,0-.11,0-.16s0-.05,0-.08V19.94A2.92,2.92,0,0,1,2.92,17h10.7V2.92A2.92,2.92,0,0,1,16.53,0H72a2.92,2.92,0,0,1,2.92,2.92V17h10.7a2.92,2.92,0,0,1,2.92,2.92V31.61s0,.05,0,.08S88.5,31.8,88.5,31.85Zm-19.45-26H19.45v24.8a24.8,24.8,0,0,0,49.6,0ZM23.34,81.69H65.16a2.92,2.92,0,1,1,0,5.83H23.34a2.92,2.92,0,1,1,0-5.83Z"/>
    </g>
  </g>
</svg>
