<svg xmlns="http://www.w3.org/2000/svg" viewBox="0 0 176.2 176.2">
  <defs>
    <style>
      .cls-1 {
        fill: #c0392b;
      }
    </style>
  </defs>
  <title>Injury</title>
  <g id="Layer_2" data-name="Layer 2">
    <g id="Layer_1-2" data-name="Layer 1">
      <g>
        <path class="cls-1" d="M165.53,62.29,62.29,165.53a36.5,36.5,0,0,1-51.62-51.62L113.91,10.67a36.5,36.5,0,0,1,51.62,51.62ZM15.62,118.86a29.5,29.5,0,0,0,41.72,41.72L160.58,57.34a29.5,29.5,0,0,0-41.72-41.72Z"/>
        <rect class="cls-1" x="61.62" y="76.96" width="7" height="64" transform="translate(-57.97 77.96) rotate(-45)"/>
        <rect class="cls-1" x="106.88" y="31.71" width="7" height="64" transform="translate(-12.72 96.71) rotate(-45)"/>
        <g>
          <circle class="cls-1" cx="45.7" cy="109.05" r="3.5" transform="translate(-63.73 64.26) rotate(-45)"/>
          <circle class="cls-1" cx="32.97" cy="121.78" r="3.5" transform="translate(-76.45 58.98) rotate(-45)"/>
          <circle class="cls-1" cx="20.25" cy="134.51" r="3.5" transform="translate(-89.18 53.71) rotate(-45)"/>
        </g>
        <g>
          <circle class="cls-1" cx="56.31" cy="119.66" r="3.5" transform="translate(-68.12 74.86) rotate(-45)"/>
          <circle class="cls-1" cx="43.58" cy="132.39" r="3.5" transform="translate(-80.85 69.59) rotate(-45)"/>
          <circle class="cls-1" cx="30.85" cy="145.12" r="3.5" transform="translate(-93.58 64.32) rotate(-45)"/>
        </g>
        <g>
          <circle class="cls-1" cx="66.91" cy="130.27" r="3.5" transform="translate(-72.51 85.47) rotate(-45)"/>
          <circle class="cls-1" cx="54.19" cy="142.99" r="3.5" transform="translate(-85.24 80.2) rotate(-45)"/>
          <circle class="cls-1" cx="41.46" cy="155.72" r="3.5" transform="translate(-97.97 74.93) rotate(-45)"/>
        </g>
        <g>
          <circle class="cls-1" cx="135.5" cy="19.25" r="3.5" transform="translate(26.08 101.45) rotate(-45)"/>
          <circle class="cls-1" cx="122.78" cy="31.98" r="3.5" transform="translate(13.35 96.18) rotate(-45)"/>
          <circle class="cls-1" cx="110.05" cy="44.71" r="3.5" transform="translate(0.62 90.91) rotate(-45)"/>
        </g>
        <g>
          <circle class="cls-1" cx="146.11" cy="29.86" r="3.5" transform="translate(21.68 112.06) rotate(-45)"/>
          <circle class="cls-1" cx="133.38" cy="42.59" r="3.5" transform="translate(8.95 106.79) rotate(-45)"/>
          <circle class="cls-1" cx="120.65" cy="55.31" r="3.5" transform="translate(-3.77 101.52) rotate(-45)"/>
        </g>
        <g>
          <circle class="cls-1" cx="156.72" cy="40.46" r="3.5" transform="translate(17.29 122.67) rotate(-45)"/>
          <circle class="cls-1" cx="143.99" cy="53.19" r="3.5" transform="translate(4.56 117.4) rotate(-45)"/>
          <circle class="cls-1" cx="131.26" cy="65.92" r="3.5" transform="translate(-8.17 112.12) rotate(-45)"/>
        </g>
      </g>
    </g>
  </g>
</svg>
