<?xml version="1.0" encoding="utf-8"?>
<!-- Generator: Adobe Illustrator 19.1.0, SVG Export Plug-In . SVG Version: 6.00 Build 0)  -->
<svg version="1.1" id="Слой_1" xmlns="http://www.w3.org/2000/svg" xmlns:xlink="http://www.w3.org/1999/xlink" x="0px" y="0px"
	 viewBox="0 0 29.8 256.2" style="enable-background:new 0 0 29.8 256.2;" xml:space="preserve">
<style type="text/css">
	.st0{fill:#9EA3AE;}
</style>
<g>
	<path class="st0" d="M2.6,4.8H1V8H0V0h3.2c1.5,0,2.5,0.9,2.5,2.4c0,1.4-1,2.2-2.1,2.3L5.8,8H4.6L2.6,4.8z M3.1,0.9H1v3.1h2.1
		c0.9,0,1.6-0.6,1.6-1.5S4,0.9,3.1,0.9z"/>
	<path class="st0" d="M12.3,6.2h-4L7.6,8H6.5l3.2-8h1.2l3.2,8H13L12.3,6.2z M8.6,5.3H12L10.3,1L8.6,5.3z"/>
	<path class="st0" d="M16.2,1.6V8h-1V0h1l4.6,6.2V0h1v8h-1L16.2,1.6z"/>
	<path class="st0" d="M25.5,4.4l-0.8,0.9V8h-1V0h1v4.1L28.2,0h1.2l-3.3,3.8L29.8,8h-1.2L25.5,4.4z"/>
	<path class="st0" d="M14.6,29.8l-1.3,1.4l-0.6-0.6l2-2.1h0.9v8h-1V29.8z"/>
	<path class="st0" d="M11.6,60.1c2.9-2.3,4.4-3.6,4.4-5c0-1-0.8-1.5-1.7-1.5c-1,0-1.7,0.4-2.2,1L11.6,54c0.6-0.8,1.7-1.3,2.8-1.3
		c1.3,0,2.7,0.8,2.7,2.4c0,1.6-1.7,3.1-3.9,4.9h3.9v0.9h-5.5V60.1z"/>
	<path class="st0" d="M12.1,83.5c0.5,0.6,1.3,1.1,2.2,1.1c1.2,0,1.9-0.6,1.9-1.5c0-1-0.8-1.4-2-1.4c-0.3,0-0.7,0-0.8,0v-0.9
		c0.1,0,0.5,0,0.8,0c1,0,1.9-0.4,1.9-1.3c0-0.9-0.8-1.4-1.8-1.4c-0.9,0-1.5,0.3-2.1,1l-0.6-0.6c0.6-0.7,1.5-1.2,2.7-1.2
		c1.5,0,2.7,0.8,2.7,2.1c0,1.2-1,1.7-1.7,1.9c0.7,0.1,1.8,0.7,1.8,2c0,1.3-1.1,2.3-2.8,2.3c-1.4,0-2.4-0.6-2.8-1.3L12.1,83.5z"/>
	<path class="st0" d="M15.4,107.6h-3.8v-0.8l3.4-5.1h1.4v5.1h1.1v0.9h-1.1v2h-1V107.6z M12.5,106.8h2.8v-4.2L12.5,106.8z"/>
	<path class="st0" d="M12.4,132.3c0.5,0.7,1.2,1.1,2.2,1.1c1.1,0,1.8-0.7,1.8-1.7c0-1.1-0.8-1.7-1.8-1.7c-0.7,0-1.3,0.2-1.8,0.8
		l-0.7-0.3v-4.3h4.9v0.9H13v2.8c0.4-0.4,1.1-0.7,1.9-0.7c1.3,0,2.5,0.9,2.5,2.6c0,1.6-1.2,2.6-2.8,2.6c-1.4,0-2.2-0.5-2.8-1.3
		L12.4,132.3z"/>
	<path class="st0" d="M14.8,150.3c1,0,1.7,0.4,2.2,1l-0.5,0.7c-0.4-0.5-0.9-0.8-1.7-0.8c-1.5,0-2.3,1.6-2.3,3.1c0,0.1,0,0.2,0,0.3
		c0.3-0.6,1.2-1.2,2.3-1.2c1.4,0,2.6,0.9,2.6,2.6c0,1.4-1.1,2.6-2.8,2.6c-2.2,0-3.1-2-3.1-4.1C11.6,152.3,12.6,150.3,14.8,150.3z
		 M14.6,154.3c-0.8,0-1.6,0.5-2,1.2c0.1,1,0.6,2.2,2,2.2c1.2,0,1.8-0.9,1.8-1.7C16.5,154.9,15.6,154.3,14.6,154.3z"/>
	<path class="st0" d="M16.1,175.7h-4.3v-0.9h5.5v0.7l-3.3,7.3h-1.1L16.1,175.7z"/>
	<path class="st0" d="M13.6,203.1c-0.9-0.3-1.8-0.9-1.8-1.9c0-1.4,1.4-2.1,2.7-2.1c1.3,0,2.7,0.6,2.7,2.1c0,1.1-0.9,1.7-1.8,1.9
		c1,0.3,1.9,1,1.9,2.1c0,1.4-1.3,2.2-2.9,2.2c-1.6,0-2.9-0.8-2.9-2.2C11.7,204.2,12.6,203.4,13.6,203.1z M14.5,203.6
		c-0.5,0.1-1.9,0.5-1.9,1.5c0,0.9,0.9,1.4,1.9,1.4c1,0,1.9-0.5,1.9-1.4C16.4,204.1,15,203.6,14.5,203.6z M14.5,200
		c-1,0-1.7,0.5-1.7,1.3c0,1,1.3,1.3,1.7,1.4c0.5-0.1,1.7-0.4,1.7-1.4C16.3,200.5,15.5,200,14.5,200z"/>
	<path class="st0" d="M12.5,230.1c0.4,0.5,0.9,0.8,1.7,0.8c1.6,0,2.3-1.6,2.3-3.1c0-0.1,0-0.2,0-0.3c-0.3,0.6-1.2,1.2-2.3,1.2
		c-1.4,0-2.6-0.9-2.6-2.6c0-1.4,1.1-2.6,2.8-2.6c2.2,0,3.1,2,3.1,4.1c0,2.2-1,4.1-3.2,4.1c-1,0-1.7-0.4-2.2-1L12.5,230.1z
		 M14.4,224.4c-1.2,0-1.8,0.9-1.8,1.7c0,1.2,0.8,1.7,1.8,1.7c0.8,0,1.6-0.5,2-1.2C16.3,225.7,15.8,224.4,14.4,224.4z"/>
	<path class="st0" d="M10.9,249.4l-1.3,1.4l-0.6-0.6l2-2.1h0.9v8h-1V249.4z"/>
	<path class="st0" d="M16.5,247.9c2.2,0,3.1,2.2,3.1,4.1c0,1.9-0.9,4.1-3.1,4.1c-2.2,0-3.1-2.2-3.1-4.1
		C13.5,250.1,14.4,247.9,16.5,247.9z M16.5,248.8c-1.5,0-2,1.6-2,3.2s0.5,3.2,2,3.2s2-1.7,2-3.2S18.1,248.8,16.5,248.8z"/>
</g>
</svg>
