<svg xmlns="http://www.w3.org/2000/svg" viewBox="0 0 282.6 324.73">
  <defs>
    <style>
      .cls-1 {
        fill: #c0392b;
        stroke: #c0392b;
        stroke-miterlimit: 10;
        stroke-width: 8.73px;
      }

      .cls-2 {
        font-size: 180px;
        fill: #fff;
        font-family: Flama-Medium, Flama;
      }
    </style>
  </defs>
  <title>-3 GCP</title>
  <g id="Layer_2" data-name="Layer 2">
    <g id="Layer_1-2" data-name="Layer 1">
      <g>
        <path class="cls-1" d="M257.16,46.5h-3.51c-37.21,0-61.44-9.22-99.71-37.92a21,21,0,0,0-25.28,0C90.38,37.28,66.15,46.5,28.94,46.5H25.43A21.07,21.07,0,0,0,4.36,67.56v94.8c0,46.84,23,89,66.38,121.93a248.71,248.71,0,0,0,64,35,21.2,21.2,0,0,0,13.48,0,248.31,248.31,0,0,0,63.84-35c43.27-32.93,66.14-75.08,66.14-121.91V67.56A21.06,21.06,0,0,0,257.16,46.5Zm0,115.86c0,97.81-115.66,136.94-115.66,136.94S25.43,260.17,25.43,162.36V71.08a3.52,3.52,0,0,1,3.51-3.52C71.08,67.56,99.16,57,141.3,25.43,183.43,57,211.52,67.56,253.65,67.56a3.52,3.52,0,0,1,3.51,3.52Z"/>
        <text class="cls-2" transform="translate(56.43 227.15)">-3</text>
      </g>
    </g>
  </g>
</svg>
