<svg xmlns="http://www.w3.org/2000/svg" viewBox="0 0 15 15">
  <defs>
    <style>
      .cls-1 {
        fill: #fcfeef;
      }
    </style>
  </defs>
  <title>Asset 23</title>
  <g id="Layer_2" data-name="Layer 2">
    <g id="Layer_1-2" data-name="Layer 1">
      <path class="cls-1" d="M7.5,0A7.5,7.5,0,1,0,15,7.5,7.51,7.51,0,0,0,7.5,0Zm6.56,7.5a6.57,6.57,0,0,1-4.54,6.24l-.61-.61H6.09l-.62.61A6.51,6.51,0,0,1,1,6.39l1.3-.29.94-1.87L2.84,2.89a6.55,6.55,0,0,1,9.32,0l-.44,1.33.94,1.88,1.3.29A6.55,6.55,0,0,1,14.06,7.5Zm-8-1.87L5.16,3.28,7.5,1.88l2.34,1.4L8.91,5.63ZM12.19,8l.47,2.34-2.34,1.41L8.44,9.84,9.84,7.5Zm-7-.47L6.56,9.84,4.69,11.72,2.34,10.31,2.81,8Z"/>
    </g>
  </g>
</svg>
