<svg xmlns="http://www.w3.org/2000/svg" viewBox="0 0 258.97 258.97">
  <defs>
    <style>
      .cls-1 {
        fill: #c0392b;
      }
    </style>
  </defs>
  <title>Own goal</title>
  <g id="Layer_2" data-name="Layer 2">
    <g id="Layer_1-2" data-name="Layer 1">
      <path class="cls-1" d="M129.48,0C58.09,0,0,58.09,0,129.48S58.09,259,129.48,259,259,200.88,259,129.48,200.88,0,129.48,0ZM242.78,129.48a113.44,113.44,0,0,1-78.4,107.73L153.76,226.6H105.21L94.58,237.21A112.4,112.4,0,0,1,18,110.25l22.51-5L56.66,72.83,49,49.86a113,113,0,0,1,161,0l-7.65,23,16.19,32.37,22.51,5A113.16,113.16,0,0,1,242.78,129.48ZM105.21,97.11,89,56.65l40.47-24.2,40.47,24.21L153.76,97.12Zm105.21,40.47L218.51,178,178,202.32l-32.37-32.37,24.28-40.47ZM89,129.48l24.28,40.47L80.92,202.32,40.46,178l8.09-40.47Z"/>
    </g>
  </g>
</svg>
