<svg xmlns="http://www.w3.org/2000/svg" viewBox="0 0 300 241.71">
  <defs>
    <style>
      .cls-1 {
        fill: #2ecc71;
      }
    </style>
  </defs>
  <title>Save</title>
  <g id="Layer_2" data-name="Layer 2">
    <g id="Layer_1-2" data-name="Layer 1">
      <g>
        <g>
          <path class="cls-1" d="M67.21,199.72a4.2,4.2,0,0,1-1,.84c-9.69,4-19.34,8.14-29.12,11.93a8.43,8.43,0,0,1-9.29-2.07c-2-1.94-1.66-3,.84-4,8.59-3.46,17.14-7,25.7-10.57l.3-.14C61.28,192.94,62.64,193.38,67.21,199.72Z"/>
          <path class="cls-1" d="M34,214.62a10.35,10.35,0,0,1-7.23-3.1c-.88-.85-2-2.16-1.72-3.71s1.79-2.33,3-2.84c6.12-2.47,12.22-5,18.32-7.52l7.37-3,.32-.15c7.24-3,9.38-2.31,14.35,4.57l.81,1.13-1,.92-.2.2a3.54,3.54,0,0,1-1.19.9l-6.78,2.83c-7.31,3.05-14.86,6.21-22.37,9.11A10.13,10.13,0,0,1,34,214.62Zm-5.87-6.22a4.33,4.33,0,0,0,.77.91A6.89,6.89,0,0,0,36.57,211c7.47-2.89,15-6,22.3-9.08l6.2-2.58c-3.39-4.56-4.32-4.56-9.81-2.28l-.32.15-7.35,3c-6.11,2.53-12.21,5.06-18.34,7.53A4.58,4.58,0,0,0,28.13,208.4Z"/>
        </g>
        <g>
          <path class="cls-1" d="M2,149.57C.72,144.84,2,141,6.45,138.91,16.61,134.25,27,130.13,38,125.49c-.55,3.62-.91,6.55-1.49,9.43-.12.58-1,1.21-1.65,1.48q-15.64,6.55-31.33,13A5.7,5.7,0,0,1,2,149.57Z"/>
          <path class="cls-1" d="M.91,151.23.56,150c-1.6-5.76.27-10.18,5.26-12.47,7.21-3.3,14.44-6.3,22.1-9.48,3.12-1.29,6.27-2.6,9.48-4L39.92,123l-.41,2.71c-.15,1-.29,2-.43,2.89-.35,2.42-.65,4.5-1.08,6.61-.33,1.64-2.35,2.5-2.58,2.6q-15.62,6.54-31.32,13a4.09,4.09,0,0,1-1.43.26l-.48,0ZM36.08,128l-7,2.91c-7.63,3.16-14.84,6.15-22,9.43-3.18,1.45-4.48,4-3.87,7.55q15.52-6.4,31-12.87a2.49,2.49,0,0,0,.77-.5c.39-2,.69-4,1-6.32Z"/>
        </g>
        <g>
          <path class="cls-1" d="M55.95,189.15,24.42,202.22c-.49-.33-.62-.37-.67-.46-4.09-6.88-4.06-7,3.28-10,6.31-2.6,12.71-5,18.87-7.91,3.26-1.53,5.57-1.58,7.47,1.72C54,186.71,54.9,187.72,55.95,189.15Z"/>
          <path class="cls-1" d="M24.29,203.93l-.73-.45-.39-.25a2,2,0,0,1-.75-.72c-2.27-3.82-3.42-5.75-2.77-7.7s2.83-2.84,6.79-4.48c1.77-.73,3.54-1.44,5.32-2.16,4.47-1.8,9.08-3.66,13.48-5.73,3-1.39,6.73-2.38,9.46,2.35a19.86,19.86,0,0,0,1.49,2.11c.31.41.65.85,1,1.33l1.15,1.58Zm25.14-19.55a7.22,7.22,0,0,0-2.88.86c-4.48,2.11-9.14,4-13.64,5.8-1.77.71-3.53,1.42-5.29,2.15-2.38,1-4.85,2-5,2.61s1,2.57,2.18,4.63L53.53,188.5A19.64,19.64,0,0,1,52,186.34C51.27,185,50.53,184.38,49.43,184.38Z"/>
        </g>
        <g>
          <path class="cls-1" d="M36.09,142.11c.32,2.81.7,5,.73,7.22a2.89,2.89,0,0,1-1.43,2.17q-12.93,5.52-26,10.74c-.66.27-1.86-.65-2.72-1.15-.31-.18-.36-.79-.53-1.2-2-4.71-2-4.72,2.58-6.63q11.9-4.93,23.82-9.84C33.56,143,34.59,142.66,36.09,142.11Z"/>
          <path class="cls-1" d="M9.16,163.81a5.58,5.58,0,0,1-2.76-1.12l-.47-.29a2.52,2.52,0,0,1-1.09-1.66,2.29,2.29,0,0,0-.08-.25c-1.18-2.77-1.76-4.16-1.18-5.58s2-2,4.58-3.08Q20.06,146.89,32,142c.67-.28,1.36-.52,2.19-.82L37.4,140l.22,1.94c.09.81.19,1.57.28,2.29a44,44,0,0,1,.46,5.08A4.38,4.38,0,0,1,36,152.9c-9.49,4.05-18,7.57-26,10.76A2.21,2.21,0,0,1,9.16,163.81ZM7.8,159.95l.23.15a9.45,9.45,0,0,0,1.06.61c7.92-3.15,16.33-6.63,25.69-10.63a1.77,1.77,0,0,0,.49-.78,42.65,42.65,0,0,0-.44-4.69l-.05-.41c-.6.22-1.13.41-1.65.62q-11.91,4.91-23.82,9.84A12.74,12.74,0,0,0,6.4,156.1a16.69,16.69,0,0,0,1.18,3.16,5.12,5.12,0,0,1,.22.65Z"/>
        </g>
        <g>
          <path class="cls-1" d="M18.78,189.06c-4.64-6.89-4.5-7.41,2.54-10.3,6.41-2.63,12.86-5.18,19.2-8,2.19-1,3.16-.45,4.14,1.53,3,6,3.13,4.79-2.42,7.17-6.79,2.91-13.64,5.67-20.46,8.47C20.78,188.36,19.74,188.7,18.78,189.06Z"/>
          <path class="cls-1" d="M18.18,190.92l-.68-1c-2.52-3.74-3.91-6-3.28-8s2.87-3,6.51-4.53l4.77-1.95c4.74-1.93,9.65-3.92,14.4-6,2.85-1.26,4.74-.57,6.14,2.26.31.62.58,1.16.82,1.64,1.12,2.2,1.68,3.3,1.22,4.53s-1.52,1.6-3.31,2.31c-.54.21-1.18.47-1.92.78-5.38,2.3-10.87,4.55-16.19,6.72l-4.3,1.76c-.67.28-1.37.53-2,.77l-1,.37Zm24.07-19.11a3.18,3.18,0,0,0-1.11.36c-4.79,2.12-9.72,4.12-14.48,6.06l-4.76,1.94c-1.8.74-4.52,1.86-4.74,2.58s1,2.66,2.22,4.45c.6-.21,1.21-.43,1.81-.68l4.31-1.76c5.3-2.17,10.79-4.41,16.14-6.7.77-.33,1.44-.59,2-.82s1.1-.43,1.44-.6c-.17-.45-.57-1.23-1-2-.25-.49-.53-1-.84-1.67C42.88,172.15,42.67,171.81,42.26,171.81Z"/>
        </g>
        <g>
          <g>
            <path class="cls-1" d="M256.27,38.45A11.21,11.21,0,0,1,253.32,57l-.13,0-79.75,35.8a6.23,6.23,0,0,0-3.31,7.94l.12.28a6.23,6.23,0,0,0,8,3.29l93.12-31.54c.25-.11.5-.22.75-.3a11.48,11.48,0,0,1,7.39,21.73l-.61.17-92,31.38a6.23,6.23,0,0,0-3.56,6.75,3.71,3.71,0,0,0,.36,1.35c.28.68.64,1.58.64,1.58a6.59,6.59,0,0,0,1,1.17c1.19,1.08,2.7,1.4,5.26,1l82.66-19.76A11.21,11.21,0,0,1,278,139.73c-.38.08-.78.14-1.19.19L230.54,150.2h0l-3.27.72c-9.51,2.15-38.54,10.1-62.73,20.13-1.76.72-5.36,2.41-5.79,2.58a6.23,6.23,0,0,0,.14,11.57v0l41.57,19a17.73,17.73,0,0,1,4.55,3,17.3,17.3,0,0,1,4.38,6.23,15.43,15.43,0,0,1,1,10c0,.1-.14.37-.14.37A8,8,0,0,1,200,228.43l-67.63-18.77h0l-12-3.34c-11.25-3.75-28.44-11.12-43-24.3a87.73,87.73,0,0,1-10.77-11.65c-1-1.56-2-3.15-2.93-4.8a101.37,101.37,0,0,1-4.88-9.83,53.35,53.35,0,0,1-3.87-18l0,0c0-.11,0-.2,0-.3v0a50.67,50.67,0,0,1,4.74-22.43l0-.18c.12-.26.27-.51.39-.76.72-1.52,1.49-3,2.33-4.46.07-.11.13-.25.2-.36.93-1.58,1.92-3.09,3-4.58l.72-1c1.06-1.47,2.15-2.91,3.29-4.28h0c1.15-1.39,2.34-2.71,3.54-4l.75-.79c.26-.27.51-.56.77-.82h0c5-5.07,8.28-8.3,14.58-12.49L101,73.71h0s45.6-28.4,45.71-28.44l49.63-30.7h0c.13-.09.23-.2.36-.28A10.19,10.19,0,0,1,207.5,31.56c-.11.06-.22.1-.33.16s-53.42,32.52-53.74,32.73l-.17.1A5.77,5.77,0,0,0,151,71.69l0,.1A6.12,6.12,0,0,0,152.63,74a6.24,6.24,0,0,0,6.12,1.3l85.32-38.67.1-.06a11.2,11.2,0,0,1,12.1,1.92m7.53-8.31a22.42,22.42,0,0,0-24.22-3.85l-.46.23-19.67,8.91A21.41,21.41,0,0,0,190.73,4.76c-.32.2-.61.4-.85.59l-49.1,30.37,0,.08c-3.6,2.1-13.65,8.36-45.78,28.38l-.22.14L83.2,71.67l-.22.14A89.87,89.87,0,0,0,67.22,85.16c-.22.18-.42.38-.62.58s-.47.49-.71.75l-.19.2-.48.51-.26.27-.11.12c-1.47,1.57-2.77,3-4,4.48l-.24.3c-1.12,1.37-2.28,2.88-3.51,4.59l-.55.77-.21.3c-1.39,2-2.51,3.73-3.5,5.42-.08.12-.17.31-.27.49-.93,1.61-1.76,3.22-2.61,5-.21.38-.39.73-.55,1.08a9.57,9.57,0,0,0-.39,1,61.67,61.67,0,0,0-5.41,26.06c0,.16,0,.33,0,.48s0,.29,0,.44c0,.32,0,.65.07,1a65.31,65.31,0,0,0,4.62,20.92c0,.1.09.21.13.32a113,113,0,0,0,5.43,10.92c.9,1.59,1.93,3.29,3.24,5.32.16.26.34.51.52.76a99.85,99.85,0,0,0,12.14,13.14c15.82,14.34,34.28,22.4,47,26.64l.54.17,12,3.33.22.06,67,18.6a19.18,19.18,0,0,0,24.12-11.37h0l-.08.2h0s.39-1,.49-1.37a26.44,26.44,0,0,0-1.41-17.44,28.43,28.43,0,0,0-7.21-10.25A28.81,28.81,0,0,0,205,194l-31.66-14.45a464.82,464.82,0,0,1,56.31-17.69l3.19-.69.28-.07L278.78,151c.53-.08,1-.17,1.52-.27a22.42,22.42,0,0,0-2.22-44.21l4.12-1.4.87-.27a22.69,22.69,0,0,0-14.62-43c-.38.13-.74.27-1.09.41l-3.8,1.29a22.42,22.42,0,0,0,.23-33.41Z"/>
            <path class="cls-1" d="M202.84,241.71a20.85,20.85,0,0,1-6.76-1.13l-79.81-22.16c-12.83-4.28-31.5-12.44-47.51-27a101.57,101.57,0,0,1-12.33-13.34c-.22-.3-.43-.59-.61-.88-1.31-2-2.35-3.74-3.28-5.38A114.54,114.54,0,0,1,47,160.79l-.1-.25A67,67,0,0,1,42.17,139c0-.25-.06-.63-.07-1v-.49c0-.06,0-.22,0-.37a63.35,63.35,0,0,1,5.54-26.78,8.82,8.82,0,0,1,.41-1c.17-.37.36-.75.59-1.16.86-1.82,1.71-3.43,2.63-5,.09-.18.21-.39.3-.54,1-1.72,2.14-3.48,3.55-5.49l.41-.59L55.9,96c1.25-1.73,2.42-3.26,3.56-4.65l.17-.22c1.29-1.55,2.61-3,4.1-4.64l1-1.09c.23-.26.48-.52.73-.77s.47-.46.72-.68A91.07,91.07,0,0,1,82.12,70.53l.33-.21,11.78-7.46c29-18.08,40.33-25.12,44.81-27.8l.93-.66L189.07,4c.17-.13.49-.36.85-.58a22.95,22.95,0,0,1,33.19,28.62l15.37-7,.47-.22A24,24,0,0,1,264.84,29h0a24,24,0,0,1,3.73,31.2,24.23,24.23,0,0,1,15.15,46,24,24,0,0,1-3.08,46c-.54.11-1.07.21-1.63.29l-49,10.87a462.69,462.69,0,0,0-52.69,16.31l28.34,12.93a30.38,30.38,0,0,1,7.83,5.15,30,30,0,0,1,7.6,10.8A28,28,0,0,1,222.58,227c-.08.29-.33,1-.45,1.29h0A20.6,20.6,0,0,1,202.84,241.71ZM83,71.76l.83,1.29A88.07,88.07,0,0,0,68.32,86.24c-.28.24-.45.4-.61.58s-.45.47-.67.71l-1.11,1.17c-1.39,1.49-2.67,2.94-3.85,4.36l-.18.22c-1.16,1.42-2.29,2.89-3.51,4.59l-.75,1.06c-1.35,1.94-2.44,3.63-3.43,5.31-.09.14-.16.29-.25.44-.9,1.56-1.71,3.11-2.58,4.93-.23.43-.39.74-.54,1.07a7.8,7.8,0,0,0-.33.82A60.44,60.44,0,0,0,45.17,137v.18c0,.09,0,.18,0,.26v.5c0,.26,0,.53.06.8a64.07,64.07,0,0,0,4.52,20.53c.06.12.11.25.15.37a112,112,0,0,0,5.32,10.67c.9,1.59,1.91,3.26,3.2,5.25.15.24.31.46.47.68a98.36,98.36,0,0,0,11.94,12.91c15.61,14.15,33.86,22.12,46.43,26.32l.52.16,12,3.32.27.07,67,18.59a17.57,17.57,0,0,0,22.19-10.24h0s.36-.93.45-1.25a25,25,0,0,0-1.36-16.42,26.93,26.93,0,0,0-6.83-9.7,27.32,27.32,0,0,0-7-4.63l-34.95-15.95,3.36-1.32a463.33,463.33,0,0,1,56.53-17.76l3.38-.74,45.72-10.16c.61-.09,1.08-.18,1.55-.28A20.89,20.89,0,0,0,277.91,108l-6.81-.77,10.6-3.61.89-.27A21.16,21.16,0,0,0,269,63.31c-.36.12-.68.25-1,.38l-11.11,3.77,5.72-5.05a20.88,20.88,0,0,0,.22-31.12h0a20.89,20.89,0,0,0-22.56-3.59l-.39.19-25,11.31,3.34-4.66A19.87,19.87,0,0,0,191.55,6.07c-.28.18-.53.35-.75.51L142.88,36.23l0,0-1.29.86c-3.64,2.13-14.25,8.74-45.75,28.35L84,73ZM202.77,230.48a9.48,9.48,0,0,1-3.36-.62L119.9,207.8c-11.88-4-29-11.42-43.61-24.65a89.77,89.77,0,0,1-11-11.85c-.92-1.42-2-3.17-3-5a103,103,0,0,1-5-10,55.4,55.4,0,0,1-4-18h0l-.05-.84v-.22a52.31,52.31,0,0,1,4.82-22.91l.1-.3c.08-.18.17-.35.26-.52l.14-.27c.8-1.68,1.58-3.17,2.39-4.57l.22-.39c.84-1.43,1.83-3,3-4.66l.73-1c.9-1.24,1.7-2.31,2.47-3.27h0l.89-1.08c1.08-1.3,2.26-2.62,3.6-4.06l1-1.1.52-.54.36-.31a80.38,80.38,0,0,1,14.5-12.37l11.83-7.49C138.45,48.55,144.73,44.65,145.89,44h0l49.58-30.67a3.29,3.29,0,0,1,.39-.3q.48-.3,1-.55l6.23-3.85-2.14,2.68a11.73,11.73,0,0,1,7.39,21.6A3.06,3.06,0,0,1,208,33c-.53.32-53,32.26-53.71,32.71l-.18.11a4.24,4.24,0,0,0-1.6,5.26,4.68,4.68,0,0,0,5.73,2.71l85.23-38.63a12.76,12.76,0,0,1,13.87,2.12h0a12.57,12.57,0,0,1,3.06,4.23A12.74,12.74,0,0,1,254,58.36l-.17.07L174.06,94.21a4.69,4.69,0,0,0-2.5,6l.1.23a4.64,4.64,0,0,0,1.12,1.55,4.69,4.69,0,0,0,4.86.9l93.18-31.56c.24-.11.49-.21.75-.3A13,13,0,1,1,280,95.66l-.58.17-92,31.39a4.67,4.67,0,0,0-2.54,5l0,.15v.15h0a3.74,3.74,0,0,0,.24.73c.21.51.47,1.14.59,1.44a4.81,4.81,0,0,0,.67.77c.7.64,1.65,1,4,.59l82.55-19.74a12.82,12.82,0,0,1,11.31,3,12.74,12.74,0,0,1-5.85,21.89c-.44.09-.88.16-1.34.22l-49.44,11a459.66,459.66,0,0,0-62.47,20c-1.12.46-3,1.31-4.29,1.9l-1.52.68a4.71,4.71,0,0,0-2.53,6.15,4.64,4.64,0,0,0,1.17,1.66,4.79,4.79,0,0,0,1.48.91l1.07.41v.11L201,202.82a19.24,19.24,0,0,1,4.94,3.24,18.73,18.73,0,0,1,4.77,6.78,16.86,16.86,0,0,1,1.07,11c0,.1-.2.54-.2.54a9.51,9.51,0,0,1-8.85,6.09Zm-70.15-22.33.12,0,67.63,18.77a6.46,6.46,0,0,0,5-.11,6.38,6.38,0,0,0,3.36-3.58c0-.05.07-.18.1-.25.93-3.26,0-6.68-1-9a15.66,15.66,0,0,0-4-5.68,16.2,16.2,0,0,0-4.15-2.73L157.22,186.2v-.06a7.8,7.8,0,0,1-1.38-1,7.68,7.68,0,0,1-1.94-2.75,7.79,7.79,0,0,1,4.21-10.17l1.41-.63c1.34-.61,3.25-1.48,4.39-1.95a463.4,463.4,0,0,1,63-20.21l3.47-.75,46.12-10.25c.52-.07.87-.13,1.22-.2a9.67,9.67,0,0,0,4.42-16.61,9.69,9.69,0,0,0-8.56-2.29l-82.63,19.75c-3.1.52-5.06.12-6.65-1.32a8,8,0,0,1-1.24-1.44l-.16-.3s-.36-.89-.64-1.56a5.67,5.67,0,0,1-.47-1.78,7.76,7.76,0,0,1,4.45-8.31l92.35-31.5.39-.11a9.94,9.94,0,0,0-6.42-18.82c-.19.06-.37.14-.55.22l-.19.08-93.12,31.54a7.77,7.77,0,0,1-9.85-4.11l-.13-.31a7.77,7.77,0,0,1,4.11-9.95l80-35.88a9.67,9.67,0,0,0,4.78-12.72,9.55,9.55,0,0,0-2.32-3.21h0a9.67,9.67,0,0,0-10.45-1.66L159.23,76.72a7.81,7.81,0,0,1-7.63-1.63,7.61,7.61,0,0,1-1.92-2.71,7.35,7.35,0,0,1,2.73-9.11l.21-.13L206.37,30.4a3.39,3.39,0,0,1,.35-.18,8.66,8.66,0,0,0-9.24-14.64l-.29.24-.34-.4.27.44L147.34,46.66C145.22,48,117,65.53,101.89,74.94l-.1.06L90,82.46c-6.23,4.15-9.5,7.37-14.3,12.27l-.64.65h0l-.89.95C73,97.54,72,98.69,71,99.81l-.35.42c-1,1.2-2,2.53-3.22,4.19l-.71,1c-1.12,1.61-2.07,3.08-2.89,4.47l-.2.36c-.76,1.31-1.5,2.73-2.26,4.33-.06.14-.14.28-.21.42l-.11.2-.1.3a49.3,49.3,0,0,0-4.6,21.76l0,.37a52.13,52.13,0,0,0,3.76,17.52A99.94,99.94,0,0,0,65,164.81c1,1.74,2,3.37,2.88,4.73a86.65,86.65,0,0,0,10.51,11.34c14.19,12.87,30.91,20.14,42.44,24Z"/>
          </g>
          <g>
            <path class="cls-1" d="M38.14,156.45l2.73,8.21L13,176.23c-1-2.38-1.93-4.37-2.6-6.46a2.33,2.33,0,0,1,.84-2.09C20,163.93,28.88,160.29,38.14,156.45Z"/>
            <path class="cls-1" d="M12.16,178.23l-.59-1.42c-.28-.67-.55-1.32-.82-1.94-.68-1.58-1.32-3.08-1.82-4.64a3.7,3.7,0,0,1,1.7-4c7.11-3,14.14-5.94,21.58-9l6.86-2.84,3.7,11.13-1.32.55-21.29,8.83Zm-.26-8.8c.45,1.37,1,2.76,1.67,4.23l.24.56L19,172.08l20-8.28L37.2,158.5l-3.81,1.58C26,163.13,19.07,166,12.05,169A1.72,1.72,0,0,0,11.9,169.43Z"/>
          </g>
        </g>
      </g>
    </g>
  </g>
</svg>
