<svg xmlns="http://www.w3.org/2000/svg" viewBox="0 0 280 280">
  <defs>
    <style>
      .cls-1 {
        fill: #2ecc71;
      }
    </style>
  </defs>
  <title>Shot On Target</title>
  <g id="Layer_2" data-name="Layer 2">
    <g id="Layer_1-2" data-name="Layer 1">
      <path class="cls-1" d="M280,136.19H258.16A118.37,118.37,0,0,0,143.81,21.84V0h-7.63V21.84A118.37,118.37,0,0,0,21.84,136.19H0v7.63H21.84A118.37,118.37,0,0,0,136.19,258.16V280h7.63V258.16A118.37,118.37,0,0,0,258.16,143.81H280Zm-29.47,0H220.11V115.84h-7.63v20.34H182V115.84h-7.63v20.34H143.81V105.67h20.34V98H143.81V67.52h20.34V59.89H143.81V29.47A110.74,110.74,0,0,1,250.53,136.19ZM136.19,29.47V59.89H115.84v7.63h20.34V98H115.84v7.63h20.34v30.52H105.67V115.84H98v20.34H67.52V115.84H59.89v20.34H29.47A110.74,110.74,0,0,1,136.19,29.47ZM29.47,143.81H59.89v20.35h7.63V143.81H98v20.35h7.63V143.81h30.52v30.52H115.84V182h20.34v30.52H115.84v7.63h20.34v30.42A110.74,110.74,0,0,1,29.47,143.81ZM143.81,250.53V220.11h20.34v-7.63H143.81V182h20.34v-7.63H143.81V143.81h30.52v20.35H182V143.81h30.52v20.35h7.63V143.81h30.42A110.73,110.73,0,0,1,143.81,250.53Z"/>
    </g>
  </g>
</svg>
