<svg xmlns="http://www.w3.org/2000/svg" viewBox="0 0 120 73">
  <defs>
    <style>
      .cls-1, .cls-2 {
        fill: #fff;
      }

      .cls-2 {
        font-size: 23.97px;
        font-family: HelveticaNeue-Light, Helvetica Neue;
      }
    </style>
  </defs>
  <title>Custom Scoring</title>
  <g id="Layer_2" data-name="Layer 2">
    <g id="Layer_1-2" data-name="Layer 1">
      <g>
        <g>
          <path class="cls-1" d="M42.77,57.31H21.23a6.08,6.08,0,0,1-6.07-6.07V29.7a6.08,6.08,0,0,1,6.07-6.07H42.77a6.08,6.08,0,0,1,6.07,6.07V51.24A6.08,6.08,0,0,1,42.77,57.31ZM21.23,25.63a4.08,4.08,0,0,0-4.07,4.07V51.24a4.08,4.08,0,0,0,4.07,4.07H42.77a4.08,4.08,0,0,0,4.07-4.07V29.7a4.08,4.08,0,0,0-4.07-4.07Z"/>
          <rect class="cls-1" x="22.16" y="15.69" width="2" height="8"/>
          <rect class="cls-1" x="39.84" y="15.69" width="2" height="8"/>
          <text class="cls-2" transform="translate(25.33 47.1)">2</text>
        </g>
        <g>
          <path class="cls-1" d="M98.77,57.31H77.23a6.08,6.08,0,0,1-6.07-6.07V29.7a6.08,6.08,0,0,1,6.07-6.07H98.77a6.08,6.08,0,0,1,6.07,6.07V51.24A6.08,6.08,0,0,1,98.77,57.31ZM77.23,25.63a4.08,4.08,0,0,0-4.07,4.07V51.24a4.08,4.08,0,0,0,4.07,4.07H98.77a4.08,4.08,0,0,0,4.07-4.07V29.7a4.08,4.08,0,0,0-4.07-4.07Z"/>
          <rect class="cls-1" x="78.16" y="15.69" width="2" height="8"/>
          <rect class="cls-1" x="95.84" y="15.69" width="2" height="8"/>
          <text class="cls-2" transform="translate(81.33 47.1)">3</text>
        </g>
        <g>
          <circle class="cls-1" cx="60" cy="30.95" r="2.76"/>
          <circle class="cls-1" cx="60" cy="45.33" r="2.76"/>
        </g>
      </g>
      <path class="cls-1" d="M118,2V71H2V2H118m2-2H0V73H120V0Z"/>
    </g>
  </g>
</svg>
