<svg xmlns="http://www.w3.org/2000/svg" viewBox="0 0 123.11 82">
  <defs>
    <style>
      .cls-1 {
        fill: #fff;
      }
    </style>
  </defs>
  <title>Player Draft</title>
  <g id="Layer_2" data-name="Layer 2">
    <g id="Layer_1-2" data-name="Layer 1">
      <g>
        <g>
          <path class="cls-1" d="M6.37,45.4V44.34c3.88-3.06,6-4.85,6-6.71a2,2,0,0,0-2.25-2A3.6,3.6,0,0,0,7.18,37l-.83-.86a4.67,4.67,0,0,1,3.75-1.7c1.8,0,3.62,1,3.62,3.17s-2.23,4.21-5.24,6.58h5.29v1.2Z"/>
          <path class="cls-1" d="M16,44.68a.89.89,0,1,1,.89.89A.9.9,0,0,1,16,44.68Z"/>
          <path class="cls-1" d="M19,48.06a13.64,13.64,0,0,0,0-13.18l.73-.55a12.27,12.27,0,0,1,0,14.3Z"/>
        </g>
        <g>
          <path class="cls-1" d="M20,73.84l.79-.84a3.75,3.75,0,0,0,3,1.42c1.57,0,2.52-.78,2.52-2s-1.1-1.91-2.68-1.91c-.45,0-1,0-1.12,0V69.28c.18,0,.68,0,1.12,0,1.36,0,2.51-.53,2.51-1.78s-1.1-1.84-2.41-1.84A3.66,3.66,0,0,0,20.88,67l-.74-.84a4.67,4.67,0,0,1,3.69-1.67c2.07,0,3.66,1.05,3.66,2.88a2.63,2.63,0,0,1-2.33,2.51,2.71,2.71,0,0,1,2.49,2.65c0,1.79-1.44,3.11-3.82,3.11A4.55,4.55,0,0,1,20,73.84Z"/>
          <path class="cls-1" d="M29.5,74.7a.89.89,0,1,1,.89.89A.9.9,0,0,1,29.5,74.7Z"/>
          <path class="cls-1" d="M32.53,78.08a13.64,13.64,0,0,0,0-13.18l.73-.55a12.27,12.27,0,0,1,0,14.3Z"/>
        </g>
        <g>
          <path class="cls-1" d="M23.21,15.38v-9L21.48,8.2l-.81-.82,2.7-2.78h1.18V15.38Z"/>
          <path class="cls-1" d="M26.79,14.66a.89.89,0,1,1,.89.89A.9.9,0,0,1,26.79,14.66Z"/>
          <path class="cls-1" d="M29.81,18a13.27,13.27,0,0,0,1.7-6.58,13.33,13.33,0,0,0-1.7-6.6l.73-.55a12.27,12.27,0,0,1,0,14.3Z"/>
        </g>
      </g>
      <path class="cls-1" d="M123.11,22H10V0H123.11ZM12,20H121.11V2H12Z"/>
      <path class="cls-1" d="M113.11,52H0V30H113.11ZM2,50H111.11V32H2Z"/>
      <path class="cls-1" d="M123.11,82H10V60H123.11ZM12,80H121.11V62H12Z"/>
    </g>
  </g>
</svg>
