<svg xmlns="http://www.w3.org/2000/svg" viewBox="0 0 68 76.53">
  <defs>
    <style>
      .cls-1, .cls-2, .cls-3 {
        fill: none;
        stroke: #a2ff73;
        stroke-width: 3px;
      }

      .cls-1, .cls-3 {
        stroke-linejoin: round;
      }

      .cls-2, .cls-3 {
        stroke-linecap: round;
      }

      .cls-2 {
        stroke-miterlimit: 10;
      }
    </style>
  </defs>
  <title>RPL Cup - green</title>
  <g id="Layer_2" data-name="Layer 2">
    <g id="Layer_1-2" data-name="Layer 1">
      <g>
        <path class="cls-1" d="M14.06,1.5h40a0,0,0,0,1,0,0V33.66A19.84,19.84,0,0,1,34.22,53.5H33.9A19.84,19.84,0,0,1,14.06,33.66V1.5A0,0,0,0,1,14.06,1.5Z"/>
        <path class="cls-1" d="M54,10.78H66.5V27.65c0,5.65-5.58,10.2-12.64,10.2"/>
        <path class="cls-1" d="M14.14,37.85C7.08,37.85,1.5,33.3,1.5,27.65V10.78H14"/>
        <line class="cls-2" x1="34.06" y1="53.92" x2="34.06" y2="74.15"/>
        <line class="cls-3" x1="48.06" y1="75.03" x2="20.06" y2="75.03"/>
      </g>
    </g>
  </g>
</svg>
