<svg xmlns="http://www.w3.org/2000/svg" viewBox="0 0 24 21.93">
  <defs>
    <style>
      .cls-1 {
        fill: #2ecc71;
      }
    </style>
  </defs>
  <title>Sign In</title>
  <g id="Layer_2" data-name="Layer 2">
    <g id="Layer_1-2" data-name="Layer 1">
      <g>
        <path class="cls-1" d="M12,0a4.23,4.23,0,1,0,4.23,4.23A4.24,4.24,0,0,0,12,0Z"/>
        <path class="cls-1" d="M24,21.93H21.72c0-4-2.75-6-6.13-6H8.42a6,6,0,0,0-4.33,1.74,5.36,5.36,0,0,0-1.8,4.26H0a7.83,7.83,0,0,1,2.47-6.24,8.66,8.66,0,0,1,5.95-2.76h7.17A8.71,8.71,0,0,1,24,21.93Z"/>
      </g>
    </g>
  </g>
</svg>
