<?xml version="1.0" encoding="utf-8"?>
<!-- Generator: Adobe Illustrator 19.1.0, SVG Export Plug-In . SVG Version: 6.00 Build 0)  -->
<svg version="1.1" id="Слой_1" xmlns="http://www.w3.org/2000/svg" xmlns:xlink="http://www.w3.org/1999/xlink" x="0px" y="0px"
	 viewBox="0 0 10.6 15" style="enable-background:new 0 0 10.6 15;" xml:space="preserve">
<style type="text/css">
	.st0{clip-path:url(#SVGID_2_);}
	.st1{clip-path:url(#SVGID_4_);fill:#E50000;}
	.st2{clip-path:url(#SVGID_4_);fill:#B70000;}
</style>
<g>
	<g>
		<defs>
			<rect id="SVGID_1_" x="0" y="0" width="10.6" height="15"/>
		</defs>
		<clipPath id="SVGID_2_">
			<use xlink:href="#SVGID_1_"  style="overflow:visible;"/>
		</clipPath>
		<g class="st0">
			<defs>
				<rect id="SVGID_3_" x="0" y="0" width="10.6" height="15"/>
			</defs>
			<clipPath id="SVGID_4_">
				<use xlink:href="#SVGID_3_"  style="overflow:visible;"/>
			</clipPath>
			<path class="st1" d="M9.9,15H0.6C0.3,15,0,14.7,0,14.4V0.6C0,0.3,0.3,0,0.6,0h9.3c0.3,0,0.6,0.3,0.6,0.6v13.8
				C10.6,14.7,10.3,15,9.9,15"/>
			<path class="st2" d="M9.9,0c0.3,0,0.6,0.3,0.6,0.6v13.8c0,0.3-0.3,0.6-0.6,0.6H0.6C0.3,15,0,14.7,0,14.4"/>
		</g>
	</g>
</g>
</svg>
