<?xml version="1.0" encoding="utf-8"?>
<!-- Generator: Adobe Illustrator 19.1.0, SVG Export Plug-In . SVG Version: 6.00 Build 0)  -->
<svg version="1.1" id="Слой_1" xmlns="http://www.w3.org/2000/svg" xmlns:xlink="http://www.w3.org/1999/xlink" x="0px" y="0px"
	 viewBox="0 0 20 22.4" style="enable-background:new 0 0 20 22.4;" xml:space="preserve">
<style type="text/css">
	.st0{fill:#2ECC71;}
</style>
<g>
	<path class="st0" d="M14.8,12.1h-4v-4c0-0.6-0.1-1-0.7-1c-0.4,0-0.7,0.1-0.7,1v4.5c0,0.1,0,0.1,0,0.2c0,0,0,0.1,0,0.1
		c0,0,0,0.1,0.1,0.3c0.1,0.3,0.3,0.5,0.6,0.5c0,0,0,0,0.1,0c0.1,0,0.1,0,0.2,0h4.5c0.6,0,1-0.1,1-0.7C15.7,12.5,15.6,12.1,14.8,12.1
		z"/>
	<path class="st0" d="M18,6.1l1-1c0.2-0.2,0.2-0.6,0-0.8l-1.5-1.5c-0.2-0.2-0.6-0.2-0.8,0l-1.1,1.1c-1.2-0.8-2.5-1.3-4-1.6V1h1
		c0.5,0,0.7-0.1,0.7-0.5c0-0.4-0.3-0.5-0.7-0.5H7.4C7,0,6.7,0.1,6.7,0.5C6.7,0.9,7,1,7.4,1h1.2v1.3C3.6,2.9,0,7,0,12.1
		c0,5.7,4.3,10.2,10,10.2s10-4.6,10-10.2C20,9.8,19.3,7.7,18,6.1z M10,21c-4.8,0-8.6-4-8.6-8.8c0-4.8,3.8-8.6,8.6-8.6
		c4.8,0,8.6,3.8,8.6,8.6C18.6,16.9,14.8,21,10,21z"/>
</g>
</svg>
