<?xml version="1.0" encoding="utf-8"?>
<!-- Generator: Adobe Illustrator 19.1.0, SVG Export Plug-In . SVG Version: 6.00 Build 0)  -->
<svg version="1.1" id="Слой_1" xmlns="http://www.w3.org/2000/svg" xmlns:xlink="http://www.w3.org/1999/xlink" x="0px" y="0px"
	 viewBox="0 0 481 554.2" style="enable-background:new 0 0 481 554.2;" xml:space="preserve">
<style type="text/css">
	.st0{fill:none;stroke:#999999;stroke-miterlimit:10;}
	.st1{fill:none;stroke:#999999;stroke-width:1.4576;stroke-miterlimit:10;}
	.st2{fill:#82C28A;stroke:#999999;stroke-miterlimit:10;}
</style>
<g>
	<g>
		<g>
			<path class="st0" d="M196.2,95.3c9.9,14.7,26.4,23.3,45.2,23.2c18.9-0.1,35.4-8.8,45.5-23.6L196.2,95.3z"/>
			<polygon class="st0" points="0.5,553.7 74.2,1.5 411.5,-0.3 480.5,553.7 			"/>
			<path class="st1" d="M240.9,335c-36.6,0.1-65-25.9-63.6-58s30.1-58.2,64.1-58.2c34-0.1,62.4,25.9,63.6,58S277.5,335,240.9,335z"
				/>
			<line class="st2" x1="446.3" y1="276" x2="37" y2="276.8"/>
			<polygon class="st0" points="87.5,553.7 95.7,458.5 385.1,458.3 392.5,553.7 			"/>
			<polygon class="st0" points="126.4,95.6 134.6,1.2 349.7,0.1 357,94.7 			"/>
			<polygon class="st0" points="163.5,553.7 165.2,516.5 316.1,516.5 317.5,553.7 			"/>
			<polygon class="st0" points="186.3,38.1 188,0.9 296.3,0.4 297.6,37.6 			"/>
			<path class="st0" d="M296.9,458.4c-13.3-13.9-33.9-23.4-57-23.4c-23.1,0-43.8,9.5-57.2,23.4L296.9,458.4z"/>
		</g>
	</g>
</g>
</svg>
