<?xml version="1.0" encoding="utf-8"?>
<!-- Generator: Adobe Illustrator 19.1.0, SVG Export Plug-In . SVG Version: 6.00 Build 0)  -->
<svg version="1.1" id="Слой_1" xmlns="http://www.w3.org/2000/svg" xmlns:xlink="http://www.w3.org/1999/xlink" x="0px" y="0px"
	 viewBox="0 0 21.6 21.7" style="enable-background:new 0 0 21.6 21.7;" xml:space="preserve">
<style type="text/css">
	.st0{fill:#FCFEEF;}
	.st1{fill:none;stroke:#FCFEEF;stroke-width:1.5727;stroke-miterlimit:10;}
</style>
<g>
	<polygon class="st0" points="14.1,11.1 17.4,11.7 18.1,15.1 14.8,17.1 12.1,14.4 	"/>
	<polygon class="st0" points="10.7,3.1 14.1,5.1 12.7,8.4 8.7,8.3 7.4,5 	"/>
	<polygon class="st0" points="7.3,11.1 9.7,14.3 6.7,17.1 3.3,15.2 3.5,11.7 	"/>
	<polygon class="st0" points="16.7,6.4 18.1,9 19.9,9.5 20,8.2 18.5,4.8 17.4,4.5 	"/>
	<polygon class="st0" points="4,4.5 4.7,6.3 3.3,9.1 1.5,9.5 3.3,4.7 	"/>
	<polygon class="st0" points="7.8,19.7 8.7,17.6 12.8,17.6 13.6,19.7 9.7,20.6 	"/>
	<ellipse class="st1" cx="10.8" cy="10.9" rx="10" ry="10.1"/>
</g>
</svg>
