<?xml version="1.0" encoding="utf-8"?>
<!-- Generator: Adobe Illustrator 19.1.0, SVG Export Plug-In . SVG Version: 6.00 Build 0)  -->
<svg version="1.1" id="Layer_1" xmlns="http://www.w3.org/2000/svg" xmlns:xlink="http://www.w3.org/1999/xlink" x="0px" y="0px"
	 viewBox="-43 45 512 512" style="enable-background:new -43 45 512 512;" xml:space="preserve">
<style type="text/css">
	.st0{fill:#2FAA57;}
</style>
<g>
	<path class="st0" d="M297.1,222.3L172.3,348l-47.2-47.2l-17.8,17.8l56,56c2.5,2.5,5.9,4.5,8.9,4.5s6.3-2,8.8-4.4l133.7-134.4
		L297.1,222.3z"/>
	<g>
		<path class="st0" d="M213,93C98.1,93,5,186.1,5,301s93.1,208,208,208s208-93.1,208-208S327.9,93,213,93z M213,491.7
			c-105.1,0-190.7-85.5-190.7-190.7c0-105.1,85.5-190.7,190.7-190.7c105.1,0,190.7,85.5,190.7,190.7
			C403.7,406.1,318.1,491.7,213,491.7z"/>
	</g>
</g>
</svg>
