<?xml version="1.0" encoding="utf-8"?>
<!-- Generator: Adobe Illustrator 19.1.0, SVG Export Plug-In . SVG Version: 6.00 Build 0)  -->
<svg version="1.1" id="Layer_1" xmlns="http://www.w3.org/2000/svg" xmlns:xlink="http://www.w3.org/1999/xlink" x="0px" y="0px"
	 viewBox="-43 45 512 512" style="enable-background:new -43 45 512 512;" xml:space="preserve">
<style type="text/css">
	.st0{fill:#D63825;}
</style>
<g>
	<g>
		<path class="st0" d="M360.1,153.9c-81.2-81.2-212.9-81.2-294.2,0s-81.2,212.9,0,294.2c81.2,81.2,212.9,81.2,294.2,0
			S441.3,235.1,360.1,153.9z M347.8,435.8c-74.3,74.3-195.3,74.3-269.6,0s-74.3-195.3,0-269.6s195.3-74.3,269.6,0
			C422.2,240.5,422.2,361.5,347.8,435.8z"/>
	</g>
	<polygon class="st0" points="297.2,205 212.8,289.2 128.8,205.4 117,217.2 201,301 117,384.8 128.8,396.6 212.8,312.8 297.2,397 
		309,385.2 224.6,301 309,216.8 	"/>
</g>
</svg>
