<?xml version="1.0" encoding="utf-8"?>
<!-- Generator: Adobe Illustrator 19.1.0, SVG Export Plug-In . SVG Version: 6.00 Build 0)  -->
<svg version="1.1" id="Слой_1" xmlns="http://www.w3.org/2000/svg" xmlns:xlink="http://www.w3.org/1999/xlink" x="0px" y="0px"
	 viewBox="0 0 28 28" style="enable-background:new 0 0 28 28;" xml:space="preserve">
<style type="text/css">
	.st0{fill:#2de1fc;}
</style>
<g>
	<g>
		<path class="st0" d="M27.4,9.1l-8.4-8.5c-0.9-0.9-1.9-0.9-2.7,0l-16,16C0,16.8,0,17,0,17.2l1.2,8.2c0.1,0.8,0.7,1.4,1.5,1.5
			l8.2,1.1c0,0,0.1,0,0.1,0c0.2,0,0.3-0.1,0.4-0.2l16-16C28.2,11,28.2,10,27.4,9.1z M26.5,11L10.7,26.7l-7.9-1.1
			c-0.3,0-0.4-0.2-0.5-0.5l-1.1-7.9L17.1,1.5c0.1-0.1,0.3-0.3,0.5-0.3c0.2,0,0.4,0.2,0.5,0.3l8.4,8.5C26.8,10.4,26.8,10.6,26.5,11z"
			/>
		<path class="st0" d="M6.4,20.1c-0.4,0-0.8,0.2-1,0.4c-0.3,0.3-0.4,0.6-0.4,1c0,0.4,0.1,0.8,0.4,1c0.3,0.3,0.6,0.4,1,0.4
			s0.8-0.1,1-0.4c0.3-0.3,0.4-0.7,0.4-1c0-0.4-0.2-0.8-0.4-1C7.2,20.3,6.8,20.1,6.4,20.1z"/>
		<g>
			<path class="st0" d="M9.6,14h1.3c-0.4-0.6-0.9-1.2-0.9-2.1c0-1.9,1.8-3.1,3.6-3.1c1.6,0,2.8,0.6,3.4,1.8l-1.4,0.9
				c-0.3-0.6-0.9-1.2-1.7-1.2c-1,0-1.9,0.6-1.9,1.7c0,0.9,0.5,1.5,1,2.1h2.3V15h-1.8c0,0.1,0,0.3,0,0.4c0,0.8-0.5,1.5-1.1,1.9
				c0.2-0.1,0.5-0.1,0.8-0.1c0.9,0,1.3,0.6,2.1,0.6c0.7,0,1.2-0.3,1.4-0.6l0.7,1.4c-0.4,0.4-1.1,0.8-2.2,0.8c-1.4,0-1.7-0.7-2.8-0.7
				c-0.5,0-1.2,0.3-1.8,0.6L10,18c1.1-0.5,1.8-1.3,1.8-2.1c0-0.3-0.1-0.6-0.2-0.9h-2V14z"/>
		</g>
	</g>
	<g>
		<path class="st0" d="M27.4,9.1l-8.4-8.5c-0.9-0.9-1.9-0.9-2.7,0l-16,16C0,16.8,0,17,0,17.2l1.2,8.2c0.1,0.8,0.7,1.4,1.5,1.5
			l8.2,1.1c0,0,0.1,0,0.1,0c0.2,0,0.3-0.1,0.4-0.2l16-16C28.2,11,28.2,10,27.4,9.1z M26.5,11L10.7,26.7l-7.9-1.1
			c-0.3,0-0.4-0.2-0.5-0.5l-1.1-7.9L17.1,1.5c0.1-0.1,0.3-0.3,0.5-0.3c0.2,0,0.4,0.2,0.5,0.3l8.4,8.5C26.8,10.4,26.8,10.6,26.5,11z"
			/>
		<path class="st0" d="M6.4,20.1c-0.4,0-0.8,0.2-1,0.4c-0.3,0.3-0.4,0.6-0.4,1c0,0.4,0.1,0.8,0.4,1c0.3,0.3,0.6,0.4,1,0.4
			s0.8-0.1,1-0.4c0.3-0.3,0.4-0.7,0.4-1c0-0.4-0.2-0.8-0.4-1C7.2,20.3,6.8,20.1,6.4,20.1z"/>
		<g>
			<path class="st0" d="M9.6,14h1.3c-0.4-0.6-0.9-1.2-0.9-2.1c0-1.9,1.8-3.1,3.6-3.1c1.6,0,2.8,0.6,3.4,1.8l-1.4,0.9
				c-0.3-0.6-0.9-1.2-1.7-1.2c-1,0-1.9,0.6-1.9,1.7c0,0.9,0.5,1.5,1,2.1h2.3V15h-1.8c0,0.1,0,0.3,0,0.4c0,0.8-0.5,1.5-1.1,1.9
				c0.2-0.1,0.5-0.1,0.8-0.1c0.9,0,1.3,0.6,2.1,0.6c0.7,0,1.2-0.3,1.4-0.6l0.7,1.4c-0.4,0.4-1.1,0.8-2.2,0.8c-1.4,0-1.7-0.7-2.8-0.7
				c-0.5,0-1.2,0.3-1.8,0.6L10,18c1.1-0.5,1.8-1.3,1.8-2.1c0-0.3-0.1-0.6-0.2-0.9h-2V14z"/>
		</g>
	</g>
</g>
</svg>
