<?xml version="1.0" encoding="utf-8"?>
<!-- Generator: Adobe Illustrator 19.1.0, SVG Export Plug-In . SVG Version: 6.00 Build 0)  -->
<svg version="1.1" id="Слой_1" xmlns="http://www.w3.org/2000/svg" xmlns:xlink="http://www.w3.org/1999/xlink" x="0px" y="0px"
	 viewBox="0 0 131.1 67.2" style="enable-background:new 0 0 131.1 67.2;" xml:space="preserve">
<style type="text/css">
	.st0{fill:none;stroke:#A2FF73;stroke-width:3;stroke-miterlimit:10;}
	.st1{fill:#A2FF73;}
	.st2{fill:#FCFEEF;}
	.st3{fill:none;stroke:#FFFFFF;stroke-width:2.6192;stroke-miterlimit:10;}
	.st4{fill:#FFFFFF;}
</style>
<g>
	<g>
		<g>
			<polyline class="st0" points="128,10.7 1.5,10.7 1.5,67.2 			"/>
			<g>
				<polygon class="st1" points="119.1,0 117.2,2 127.1,11.2 117.2,20.3 119.1,22.3 131.1,11.2 				"/>
			</g>
		</g>
	</g>
	<g>
		<path class="st2" d="M75.6,40.6c1,0.9,1.7,2.1,2.2,3.3c0.5,1.3,0.8,2.8,0.8,4.4v11.8h-1.9V48.4c0-2.7-0.8-4.8-2.3-6.3
			c-0.6-0.6-1.4-1.1-2.3-1.5c3-1.2,4.5-4.1,4.5-8.9c0-3.2-0.6-5.6-1.9-7.1c-1.3-1.5-3.4-2.3-6.3-2.3h-5.7h-0.6h-1.9v-1.9h8.3
			c3.4,0,6,1,7.7,3c1.6,1.8,2.4,4.6,2.4,8.3c0,3.7-0.8,6.5-2.4,8.4c-0.1,0.1-0.2,0.2-0.2,0.3C75.9,40.5,75.8,40.6,75.6,40.6z
			 M62.1,60.2h-1.9V23.6h1.9V60.2z M67.8,39.9h-4.4V23.6h5.1c2.4,0,4.2,0.6,5.3,1.9c1.1,1.3,1.6,3.4,1.6,6.3c0,2.9-0.5,5-1.6,6.3
			c-1.1,1.3-2.8,1.9-5.3,1.9H67.8z M73.5,60.2V48.4c0-3.5-1.7-5.2-5.1-5.2h-2.5h-0.6v17h-1.9v-19h4.4h0.6c2.2,0,4,0.6,5.2,1.9
			c1.2,1.2,1.8,3,1.8,5.3v11.8H73.5z M65.9,38h2.5c1.4,0,2.3-0.2,2.8-0.5c0.5-0.3,0.9-0.6,1-0.8c0.8-1,1.2-2.7,1.2-5.1
			c0-1.3-0.1-2.4-0.3-3.2s-0.5-1.4-0.9-1.9c-0.4-0.4-0.9-0.7-1.6-0.9c-0.6-0.1-1.4-0.2-2.2-0.2h-3.2V38H65.9z"/>
		<path class="st2" d="M101.7,23.2c1.6,1.8,2.4,4.6,2.4,8.2c0,3.6-0.8,6.4-2.4,8.3c-1.7,2-4.3,3-7.7,3h-3.2v17.4h-1.9V40.8h5.1
			c2.8,0,4.9-0.8,6.2-2.3c1.3-1.5,2-3.9,2-7.1c0-3.2-0.7-5.5-2-7c-1.3-1.5-3.4-2.3-6.2-2.3h-5.2h-1.2h-1.9v-1.9h8.3
			C97.4,20.3,99.9,21.3,101.7,23.2z M87.6,60.1h-1.9V23.5h1.9V60.1z M100.9,31.4c0,2.8-0.5,4.9-1.6,6.2c-1.1,1.3-2.9,1.9-5.3,1.9
			h-5.1v-16h5.1c2.4,0,4.2,0.6,5.3,1.8C100.4,26.6,100.9,28.6,100.9,31.4z M90.8,37.6h3.2c1.4,0,2.4-0.2,2.9-0.5
			c0.5-0.3,0.8-0.6,1-0.8c0.8-0.9,1.2-2.5,1.2-4.9c0-1.3-0.1-2.3-0.3-3.1c-0.2-0.8-0.5-1.4-0.9-1.8c-0.4-0.4-0.9-0.7-1.6-0.9
			c-0.6-0.2-1.4-0.2-2.2-0.2h-3.2V37.6z"/>
		<path class="st2" d="M111.3,58.2h15.4v1.9h-17.3V20.3h1.9V58.2z M112.6,20.3h1.9V55h12.3v1.9h-14.1V20.3z"/>
	</g>
	<g>
		<ellipse class="st3" cx="31" cy="39.5" rx="21.4" ry="21.6"/>
		<g>
			<polygon class="st4" points="38.2,40 45.1,41.3 46.6,48.5 39.5,52.8 33.8,47.2 			"/>
			<polygon class="st4" points="30.9,22.9 38.1,27.2 35.2,34.2 26.5,34.1 23.8,26.9 			"/>
			<polygon class="st4" points="23.6,40.1 28.7,46.8 22.4,52.8 15,48.9 15.5,41.3 			"/>
			<polygon class="st4" points="43.7,29.9 46.6,35.6 50.4,36.5 50.7,33.8 47.6,26.5 45.2,25.9 			"/>
			<polygon class="st4" points="16.5,25.9 18,29.8 15,35.7 11.1,36.5 15,26.3 			"/>
			<polygon class="st4" points="24.6,58.4 26.5,56.2 35.3,56.2 36.9,58.4 28.7,60.4 			"/>
		</g>
	</g>
</g>
</svg>
