<svg xmlns="http://www.w3.org/2000/svg" viewBox="0 0 157.32 67.51">
  <defs>
    <style>
      .cls-1, .cls-2 {
        fill: none;
        stroke-miterlimit: 10;
      }

      .cls-1 {
        stroke: #000;
        stroke-width: 2.62px;
      }

      .cls-2 {
        stroke: #a2ff73;
        stroke-width: 2.85px;
      }

      .cls-3 {
        fill: #a2ff73;
      }

      .cls-4 {
        font-size: 51.42px;
        font-family: OstrichSans-Bold, Ostrich Sans;
        font-weight: 700;
        letter-spacing: 0.02em;
      }
    </style>
  </defs>
  <title>RPL_logo_on_white</title>
  <g id="Layer_2" data-name="Layer 2">
    <g id="Clicks_Overlays" data-name="Clicks/Overlays">
      <g>
        <ellipse id="_Path_" data-name="&lt;Path&gt;" class="cls-1" cx="33.54" cy="40" rx="21.39" ry="21.56"/>
        <polygon id="_Path_2" data-name="&lt;Path&gt;" points="40.71 40.45 47.58 41.77 49.12 49.01 42.07 53.26 36.28 47.65 40.71 40.45"/>
        <polygon points="33.41 23.33 40.62 27.67 37.73 34.71 29 34.56 26.33 27.39 33.41 23.33"/>
        <polygon points="26.11 40.6 31.23 47.27 24.89 53.26 17.47 49.37 18.03 41.8 26.11 40.6"/>
        <polygon id="_Path_3" data-name="&lt;Path&gt;" points="46.24 30.38 49.12 36.04 52.97 37 53.25 34.25 50.11 27.02 47.7 26.34 46.24 30.38"/>
        <polygon id="_Path_4" data-name="&lt;Path&gt;" points="19.05 26.34 20.5 30.27 17.47 36.16 13.61 37 17.47 26.74 19.05 26.34"/>
        <g id="_Group_" data-name="&lt;Group&gt;">
          <g>
            <polyline class="cls-2" points="154.23 11.64 1.42 11.64 1.42 67.51"/>
            <polygon class="cls-3" points="144.8 0 142.86 2.08 153.14 11.64 142.86 21.2 144.8 23.28 157.32 11.64 144.8 0"/>
          </g>
        </g>
        <text class="cls-4" transform="translate(61.72 58.65)">RPL</text>
      </g>
    </g>
  </g>
</svg>
