<?xml version="1.0" encoding="utf-8"?>
<!-- Generator: Adobe Illustrator 19.1.0, SVG Export Plug-In . SVG Version: 6.00 Build 0)  -->
<svg version="1.1" id="Слой_1" xmlns="http://www.w3.org/2000/svg" xmlns:xlink="http://www.w3.org/1999/xlink" x="0px" y="0px"
	 viewBox="0 0 79.2 71.9" style="enable-background:new 0 0 79.2 71.9;" xml:space="preserve">
<style type="text/css">
	.st0{fill:#9DE9FE;}
	.st1{fill:#1AA2F5;}
</style>
<g>
	<path class="st0" d="M58.6,71.9H19.3c-2.2,0-3.7-1.2-3.7-3.6v-40l-7.8,1c-2.1,0.3-4-1.2-4.3-3.3L0.1,13.2c-0.6-2,0.6-4.1,2.7-4.7
		c0,0,26.4-7.9,27.7-8.3c1.1-0.3,1.1,0.9,1.1,0.9c0.6,3.9,3.9,6.8,7.9,6.8c4,0,7.4-3,7.9-6.9c0,0,0.2-1.1,1-0.9
		c0.5,0.1,28,8.5,28,8.5c2,0.6,3.2,2.7,2.7,4.7L75.8,26c-0.3,1.9-1.9,3.3-3.8,3.3l0,0c-0.2,0-0.3,0-0.5,0l-8.9-1.2v40.2
		C62.6,70.6,61,71.9,58.6,71.9z M17.6,26v42.3c0,1.3,0.6,1.6,1.7,1.6h39.3c0.9,0,1.9-0.2,1.9-1.6V25.9l11.2,1.4c1,0.1,1.9-0.6,2-1.6
		l0-0.1l3.3-12.9c0.3-1-0.3-2-1.3-2.3L49.1,2.3C48,6.7,44,9.8,39.5,9.8c-4.6,0-8.5-3-9.6-7.3L3.4,10.4c-1,0.3-1.6,1.3-1.3,2.3
		l3.3,13c0.1,1,1.1,1.7,2.1,1.6L17.6,26z"/>
	<polygon class="st1" points="68.6,10.3 55.5,6.3 19.6,27.1 19.6,38.6 	"/>
</g>
</svg>
