<?xml version="1.0" encoding="utf-8"?>
<!-- Generator: Adobe Illustrator 19.1.0, SVG Export Plug-In . SVG Version: 6.00 Build 0)  -->
<svg version="1.1" id="Слой_1" xmlns="http://www.w3.org/2000/svg" xmlns:xlink="http://www.w3.org/1999/xlink" x="0px" y="0px"
	 viewBox="0 0 23.7 20" style="enable-background:new 0 0 23.7 20;" xml:space="preserve">
<style type="text/css">
	.st0{fill:#7F8C8D;}
</style>
<path class="st0" d="M21.1,13c-1.6-1.4-3.9-3.4-6.2-7.1c-0.2-0.3-1.3-2.2-2.9-2.2c-0.4,0-0.8,0.1-1.2,0.4c-0.3,0.2-0.6,0.3-1,0.3
	c-0.9,0-1.7-0.4-1.7-0.4c0,0-1.4-0.8-1-1.4c0.4-0.7,0.3-1.7-0.7-2.3C6.1,0.1,5.8,0,5.5,0C4.2,0,3,1.3,1.5,4.1L0.3,6.2
	C0.3,6.3,0,6.8,0,7.4c0,0.9,0.4,1.7,1.3,2.2C1.4,9.7,1.7,9.8,2,10l-0.4,0.7c-0.2,0.4-0.1,0.9,0.3,1.2c0.1,0.1,0.3,0.1,0.4,0.1
	c0.3,0,0.6-0.2,0.8-0.5l0.4-0.7c0.4,0.2,0.9,0.5,1.3,0.7l-0.4,0.7c-0.2,0.4-0.1,0.9,0.3,1.2c0.1,0.1,0.3,0.1,0.4,0.1
	c0.3,0,0.6-0.2,0.8-0.5l0.4-0.7c1.3,0.7,2.8,1.5,4.2,2.3l-0.4,0.7c-0.2,0.4-0.1,0.9,0.3,1.2c0.1,0.1,0.3,0.1,0.4,0.1
	c0.3,0,0.6-0.2,0.8-0.5l0.4-0.7c0.6,0.3,1.2,0.7,1.8,1l-0.4,0.7c-0.2,0.4-0.1,0.9,0.3,1.2c0.1,0.1,0.3,0.1,0.4,0.1
	c0.3,0,0.6-0.2,0.8-0.5l0.4-0.7c0.6,0.3,1.1,0.6,1.6,0.9l-0.4,0.7c-0.2,0.4-0.1,0.9,0.3,1.2c0.1,0.1,0.3,0.1,0.4,0.1
	c0.3,0,0.6-0.2,0.8-0.5l0.4-0.7c0.4,0.2,0.7,0.4,0.7,0.4c0.1,0.1,1,0.5,2,0.5c0.9,0,1.6-0.4,2-1.2c0-0.1,1-1.9-0.3-3.8
	C22.6,14.2,21.9,13.7,21.1,13z M11.5,13.1l4.1-3.4c0.5,0.6,0.9,1.1,1.3,1.6l-3.4,2.9C12.8,13.8,12.1,13.5,11.5,13.1z M14.9,9
	l-4.4,3.7c-0.7-0.4-1.3-0.7-2-1.1l5.1-4.3C14.2,7.9,14.5,8.5,14.9,9z M1.8,7.1L3,4.9c1.7-3.2,2.5-3.2,2.5-3.2c0,0,0,0,0,0
	C5.1,2.6,5.3,3.6,6.1,4.5c0.5,0.6,1.1,0.9,1.2,0.9c0.1,0.1,1.2,0.7,2.5,0.7c0.8,0,1.4-0.2,2-0.6C11.9,5.4,12,5.4,12,5.4
	c0.4,0,0.9,0.6,1.2,1.1l-5.5,4.6c-0.4-0.2-0.9-0.5-1.3-0.7c0,0,0,0,0,0c0,0,0,0,0,0C4.2,9.2,2.6,8.3,2.1,8.1
	C1.6,7.8,1.7,7.4,1.8,7.1z M21.8,17.8c-0.1,0.1-0.2,0.3-0.5,0.3c-0.5,0-1-0.2-1.2-0.3c0,0-0.5-0.3-1.4-0.8c0,0,0,0,0,0h0
	c-1-0.6-2.6-1.4-4.3-2.3l3.2-2.7c0.9,0.9,1.8,1.7,2.4,2.3c0.7,0.6,1.3,1.1,1.6,1.5C22.2,16.8,21.8,17.7,21.8,17.8z"/>
</svg>
