<?xml version="1.0" encoding="utf-8"?>
<!-- Generator: Adobe Illustrator 22.1.0, SVG Export Plug-In . SVG Version: 6.00 Build 0)  -->
<svg version="1.1" id="Layer_1" xmlns="http://www.w3.org/2000/svg" xmlns:xlink="http://www.w3.org/1999/xlink" x="0px" y="0px"
	 viewBox="0 0 33.8 34" style="enable-background:new 0 0 33.8 34;" xml:space="preserve">
<title>Chairman_tools</title>
<path style="fill:#A2FF73;" d="M16.9,34h-0.2C16,33.8,0.2,30.5,1.6,20.4c0.5-3.8,0.1-6.9-1.4-9.4L0,10.5l2.7-6.7h0.7
	c0,0,0.4,0,1.1,0C7,3.8,13,3.5,16.2,0.6L16.9,0l0.7,0.6c3.3,2.9,9.3,3.2,11.7,3.2c0.7,0,1.1,0,1.1,0h0.7l2.7,6.7L33.6,11
	c-1.4,2.5-1.9,5.7-1.4,9.4C33.7,30.5,17.8,33.8,17.1,34H16.9z M2.2,10.3c1.5,3.2,2,6.8,1.4,10.3c-1.1,7.7,11.5,10.9,13.3,11.3
	c1.8-0.4,14.4-3.6,13.3-11.3c-0.6-3.5-0.2-7.1,1.4-10.3l-1.8-4.5h-0.5c-2.5,0-8.5-0.3-12.4-3.2C13.1,5.6,7,5.9,4.5,5.9H4L2.2,10.3z"
	/>
<path style="fill:#A2FF73;" d="M16.9,8.2c-0.6,0-1.2,0.1-1.8,0.2c-0.2,0-0.4,0.2-0.5,0.4L14.3,10c-0.8,0.3-1.5,0.7-2.2,1.3L10.9,11
	c-0.2-0.1-0.4,0-0.6,0.2c-0.8,0.9-1.4,2-1.8,3.1c-0.1,0.2,0,0.4,0.1,0.6l0.9,0.9c-0.1,0.8-0.1,1.7,0,2.5l-0.9,0.9
	c-0.2,0.2-0.2,0.4-0.1,0.6c0.4,1.2,1,2.2,1.8,3.1c0.2,0.2,0.4,0.2,0.6,0.2l1.2-0.3c0.7,0.5,1.4,0.9,2.2,1.2l0.3,1.2
	c0.1,0.2,0.2,0.4,0.5,0.4c1.2,0.3,2.4,0.3,3.6,0c0.2,0,0.4-0.2,0.5-0.4l0.3-1.2c0.8-0.3,1.5-0.7,2.2-1.3l1.2,0.3
	c0.2,0.1,0.5,0,0.6-0.2c0.8-0.9,1.4-2,1.8-3.1c0.1-0.2,0-0.5-0.1-0.6l-0.9-0.9c0.1-0.8,0.1-1.7,0-2.5l0.9-0.9
	c0.2-0.2,0.2-0.4,0.1-0.6c-0.4-1.2-1-2.2-1.8-3.1c-0.2-0.2-0.4-0.2-0.6-0.2l-1.2,0.3c-0.6-0.5-1.4-1-2.2-1.2l-0.3-1.2
	c-0.1-0.2-0.2-0.4-0.5-0.4C18.1,8.2,17.5,8.2,16.9,8.2z M16.9,9.4c0.4,0,0.8,0,1.2,0.1l0.3,1.1c0.1,0.2,0.2,0.4,0.4,0.4
	c0.9,0.3,1.7,0.7,2.3,1.4c0.2,0.1,0.4,0.2,0.6,0.1l1.1-0.3c0.3,0.3,0.5,0.6,0.7,1s0.3,0.7,0.5,1.1l-0.8,0.8
	c-0.1,0.1-0.2,0.4-0.2,0.6c0.2,0.9,0.2,1.8,0,2.7c0,0.2,0,0.4,0.2,0.5l0.8,0.8c-0.1,0.4-0.3,0.8-0.5,1.1c-0.2,0.4-0.4,0.7-0.7,1
	l-1.1-0.3c-0.2-0.1-0.4,0-0.6,0.1c-0.7,0.6-1.5,1.1-2.3,1.3c-0.2,0.1-0.3,0.2-0.4,0.4l-0.3,1.1c-0.4,0.1-0.8,0.1-1.2,0.1
	c-0.4,0-0.8-0.1-1.2-0.1l-0.3-1.1c-0.1-0.2-0.2-0.3-0.4-0.4c-0.9-0.3-1.7-0.7-2.4-1.4c-0.2-0.1-0.4-0.2-0.6-0.1l-1,0.4
	c-0.3-0.3-0.5-0.6-0.7-1s-0.4-0.7-0.5-1.1l0.8-0.8c0.1-0.1,0.2-0.4,0.2-0.6c-0.2-0.9-0.2-1.8,0-2.7c0-0.2,0-0.4-0.2-0.6l-0.8-0.8
	c0.1-0.4,0.3-0.8,0.5-1.1c0.2-0.4,0.5-0.7,0.7-1l1.1,0.3c0.2,0.1,0.4,0,0.6-0.1c0.7-0.6,1.5-1.1,2.3-1.3c0.2-0.1,0.3-0.2,0.4-0.4
	l0.3-1.1C16.1,9.4,16.5,9.4,16.9,9.4L16.9,9.4z M16.9,12.7c-2.4,0-4.3,1.9-4.3,4.3s1.9,4.3,4.3,4.3s4.3-1.9,4.3-4.3
	c0-1.1-0.4-2.2-1.2-3C19.2,13.2,18.1,12.7,16.9,12.7L16.9,12.7z M16.9,13.9c1.7,0,3.1,1.4,3.1,3.1s-1.4,3.1-3.1,3.1
	s-3.1-1.4-3.1-3.1c0-0.8,0.3-1.6,0.9-2.2C15.3,14.3,16.1,13.9,16.9,13.9L16.9,13.9z"/>
</svg>
