<?xml version="1.0" encoding="utf-8"?>
<!-- Generator: Adobe Illustrator 22.1.0, SVG Export Plug-In . SVG Version: 6.00 Build 0)  -->
<svg version="1.1" id="Background" xmlns="http://www.w3.org/2000/svg" xmlns:xlink="http://www.w3.org/1999/xlink" x="0px" y="0px"
	 viewBox="0 0 35.4 82.3" style="enable-background:new 0 0 35.4 82.3;" xml:space="preserve">
<style type="text/css">
	.st0{enable-background:new    ;}
	.st1{fill:#A2FF73;}
</style>
<title>help</title>
<g class="st0">
	<path class="st1" d="M23,53.4H11.6V42.2H23V53.4z M13.6,51.4H21v-7.2h-7.4V51.4z M22.5,40.6H12.4v-3.7c0.1-1.9,0.5-3.5,1.1-4.7
		c0.6-1.2,1.3-2.3,2-3.2c0.8-0.9,1.6-1.6,2.4-2.3c0.8-0.6,1.5-1.2,2.2-1.8c0.6-0.5,1.1-1.1,1.4-1.7c0.3-0.5,0.5-1.3,0.4-2.2
		c0-1.6-0.4-2.7-1-3.4c-0.7-0.7-1.7-1-3.1-1c-0.9,0-1.7,0.2-2.3,0.5c-0.6,0.3-1.2,0.8-1.6,1.4c-0.4,0.6-0.7,1.3-1,2.1
		c-0.2,0.9-0.3,1.8-0.3,2.8v1H1.9l0-1c0-2.3,0.4-4.4,1.2-6.3c0.7-1.9,1.8-3.6,3.1-5c1.3-1.4,3-2.5,4.9-3.3c1.9-0.8,4-1.2,6.4-1.2
		c3,0,5.5,0.4,7.5,1.2c2,0.8,3.7,1.9,4.9,3.1c1.3,1.3,2.2,2.6,2.7,4.1c0.5,1.4,0.8,2.8,0.8,4.1c0,2-0.3,3.8-0.8,5.1
		c-0.5,1.3-1.2,2.5-2,3.4c-0.8,0.9-1.7,1.8-2.7,2.4c-0.9,0.6-1.7,1.2-2.5,1.8c-0.7,0.6-1.4,1.2-2,2c-0.5,0.6-0.8,1.5-1,2.5V40.6z
		 M14.4,38.6h6.1l0-1.4c0.2-1.4,0.6-2.5,1.4-3.5c0.7-0.9,1.4-1.6,2.3-2.3c0.8-0.6,1.7-1.2,2.6-1.9c0.8-0.6,1.6-1.3,2.3-2.1
		c0.7-0.8,1.2-1.8,1.7-2.9c0.5-1.1,0.7-2.6,0.7-4.4c0-1-0.2-2.2-0.7-3.4c-0.4-1.2-1.2-2.3-2.3-3.4c-1.1-1.1-2.5-2-4.3-2.7
		c-1.8-0.7-4-1.1-6.7-1.1c-2.1,0-3.9,0.3-5.6,1c-1.6,0.7-3.1,1.6-4.2,2.9c-1.2,1.2-2.1,2.7-2.7,4.4l0,0c-0.5,1.4-0.9,2.9-1,4.6h6.8
		c0.1-0.8,0.2-1.6,0.4-2.3c0.3-1.1,0.7-2,1.3-2.8c0.6-0.8,1.3-1.5,2.3-2c0.9-0.5,2-0.7,3.3-0.7c1.9,0,3.4,0.5,4.4,1.6
		c1.1,1.1,1.7,2.7,1.7,4.8c0,1.2-0.2,2.3-0.7,3.2c-0.5,0.8-1.1,1.6-1.9,2.2c-0.7,0.6-1.5,1.2-2.3,1.9c-0.7,0.6-1.5,1.2-2.1,2
		c-0.7,0.7-1.2,1.7-1.7,2.7c-0.5,1-0.8,2.4-0.9,4L14.4,38.6z"/>
</g>
</svg>
