<?xml version="1.0" encoding="utf-8"?>
<!-- Generator: Adobe Illustrator 22.1.0, SVG Export Plug-In . SVG Version: 6.00 Build 0)  -->
<svg version="1.1" id="Background" xmlns="http://www.w3.org/2000/svg" xmlns:xlink="http://www.w3.org/1999/xlink" x="0px" y="0px"
	 viewBox="0 0 51.5 47.2" style="enable-background:new 0 0 51.5 47.2;" xml:space="preserve">
<style type="text/css">
	.st0{fill:#A2FF73;}
</style>
<title>messages</title>
<g>
	<path class="st0" d="M9.4,47.2V34.8l0,0l-3.8,0c-2.9,0-5.4-2.2-5.5-5.2L0,4.9c0.1-2.8,2.5-5,5.2-4.9l41.5,0c0.7,0,1.4,0.1,2,0.3
		c1.7,0.5,2.8,2.1,2.7,3.9l0,26c-0.1,2.6-2.3,4.6-4.8,4.5l-18.4,0c-3.7,2-16.4,10.8-16.5,10.9L9.4,47.2z M9.4,31.9
		c0.7,0,1.4,0.3,2,0.8c0.6,0.5,0.9,1.3,1,2.1l0,7c4.1-2.8,12.3-8.3,14.9-9.7l0.3-0.2h19.2c1,0,1.8-0.7,1.9-1.7l0-26
		c0-0.5-0.3-0.9-0.7-1.1l0,0c-0.4-0.1-0.7-0.2-1.1-0.2l-41.5,0c-1.2,0-2.2,0.9-2.3,2l0,24.6c0.1,1.3,1.2,2.4,2.6,2.4l3.8,0
		C9.3,31.9,9.4,31.9,9.4,31.9z"/>
	<g>
		<path class="st0" d="M12.3,14.4c1.8,0,3.2,1.4,3.2,3.2c0,1.8-1.4,3.2-3.2,3.2c-1.8,0-3.2-1.4-3.2-3.2S10.5,14.4,12.3,14.4
			C12.3,14.4,12.3,14.4,12.3,14.4 M12.3,12.5c-2.8,0-5.1,2.3-5.1,5.1c0,2.8,2.3,5.1,5.1,5.1s5.1-2.3,5.1-5.1l0,0
			C17.4,14.8,15.1,12.5,12.3,12.5L12.3,12.5z"/>
		<path class="st0" d="M25,14.4c1.8,0,3.2,1.4,3.2,3.2c0,1.8-1.4,3.2-3.2,3.2c-1.8,0-3.2-1.4-3.2-3.2S23.3,14.4,25,14.4
			C25,14.4,25,14.4,25,14.4 M25,12.5c-2.8,0-5.1,2.3-5.1,5.1c0,2.8,2.3,5.1,5.1,5.1s5.1-2.3,5.1-5.1l0,0
			C30.1,14.8,27.8,12.5,25,12.5L25,12.5z"/>
		<path class="st0" d="M37.8,14.4c1.8,0,3.2,1.4,3.2,3.2c0,1.8-1.4,3.2-3.2,3.2c-1.8,0-3.2-1.4-3.2-3.2S36,14.4,37.8,14.4
			C37.8,14.4,37.8,14.4,37.8,14.4 M37.8,12.5c-2.8,0-5.1,2.3-5.1,5.1c0,2.8,2.3,5.1,5.1,5.1s5.1-2.3,5.1-5.1l0,0
			C42.9,14.8,40.6,12.5,37.8,12.5L37.8,12.5z"/>
	</g>
</g>
</svg>
