<svg id="Layer_1" data-name="Layer 1" xmlns="http://www.w3.org/2000/svg" viewBox="0 0 20 20"><defs><style>.cls-1{fill:#9aa7c3;}</style></defs><title>Pencil</title><path class="cls-1" d="M16.36,0.3A0.93,0.93,0,0,0,15,.3L1.34,14,1,14.33,4.8,18.14h0L5.36,18.7,5.67,19l0.67-.67h0L17,7.65h0L17.7,7h0l2-2a0.93,0.93,0,0,0,0-1.34ZM5.67,17.67L2.33,14.33,13,3.64,16.36,7ZM17,6.31L13.69,3l2-2L19,4.3Z"/><polygon class="cls-1" points="1.29 18.71 2 15.33 0.98 14.32 0 20 5.67 19.01 5.36 18.7 4.8 18.14 1.29 18.71"/></svg>