<svg xmlns="http://www.w3.org/2000/svg" viewBox="0 0 305.53 356.62">
  <defs>
    <style>
      .cls-1 {
        fill: #ef0107;
      }

      .cls-2 {
        fill: #fff;
      }
    </style>
  </defs>
  <title>Arsenal</title>
  <g id="Layer_2" data-name="Layer 2">
    <g id="Layer_1-2" data-name="Layer 1">
      <g id="Arsenal">
        <g id="Arsenal-2" data-name="Arsenal">
          <path d="M153.63,355.73v.89l-.86-.43C153,356,153.28,355.9,153.63,355.73Z"/>
          <g>
            <path class="cls-1" d="M266.52,263c-43.19,55.31-102.06,87.16-112.89,92.72-.34.17-.63.32-.86.46-.26-.11-.54-.29-.89-.46C141.07,350.17,82.21,318.33,39,263-8.79,201.86.78,111.7.78,111.7,0,41.95,50.51,0,111.84,0h81.82C255,0,305.53,41.95,304.75,111.7,304.75,111.7,314.3,201.86,266.52,263Z"/>
            <path class="cls-1" d="M152.77,356.19l-.89.43v-.89C152.22,355.9,152.51,356.08,152.77,356.19Z"/>
          </g>
        </g>
        <g>
          <g>
            <path class="cls-2" d="M288.75,138.52v10.15a9.52,9.52,0,0,1-9.51,9.34H222.75v5c0,5.13-1.86,9-5.73,9H31.82c-3.87,0-7.07-3.88-7.07-9V152.85a9.54,9.54,0,0,1,.23-2.24,7.4,7.4,0,0,1-.23-1.95V138.52A9.53,9.53,0,0,1,34.09,129H279.24A9.67,9.67,0,0,1,288.75,138.52Z"/>
            <path class="cls-2" d="M193.29,179.59c0,1.49-.06,3-.17,4.44l-10.78,4.41-15.45,6.31-13.21,5.42-17.08,7-11.46,4.7-25.08,10.23-10.78,4.41L60.57,238.2c-3.58,1.46-8-1.2-10-5.93l-3.84-9.4c-1.92-4.73-.6-9.74,3-11.21L72.4,202.4l9.49-3.87,16.91-6.91,40.1-16.39,36.63-15,3.3-1.35,9.46-3.87A62,62,0,0,1,193.29,179.59Z"/>
          </g>
          <g>
            <g>
              <path class="cls-1" d="M92,196.08l-9.17,5.33a52.13,52.13,0,0,1,.4-43.51l9.09,5.5A43,43,0,0,0,92,196.08Z"/>
              <path class="cls-1" d="M124.75,222.56v9.66a53.8,53.8,0,0,1-36.3-20.92l8.93-5.24A43.12,43.12,0,0,0,124.75,222.56Z"/>
              <path class="cls-1" d="M125.13,127.61c1.58-.17,3-.54,4.54-.63-1.58.2-1.92.86-4.92,1v9.66A42.26,42.26,0,0,0,98,153.55l-8.82-5.42A53,53,0,0,1,125.13,127.61Z"/>
              <path class="cls-1" d="M165.1,207.57l7.26,4.38a53.19,53.19,0,0,1-35.61,20.21v-9.31A43.64,43.64,0,0,0,165.1,207.57Z"/>
              <path class="cls-1" d="M136.75,137.38v-9.31a53.85,53.85,0,0,1,36.17,21l-7.27,4.24A44.32,44.32,0,0,0,136.75,137.38Z"/>
              <path class="cls-1" d="M183.08,180.12a51.6,51.6,0,0,1-4.9,22l-7.08-4.3a42.9,42.9,0,0,0,.34-34.71L178.6,159A51.48,51.48,0,0,1,183.08,180.12Z"/>
            </g>
            <g>
              <path class="cls-2" d="M188.28,155.05a62.61,62.61,0,0,0-120.2,24.53,62.78,62.78,0,0,0,62.62,62.62A62.66,62.66,0,0,0,193.12,184c.11-1.46.17-3,.17-4.44A62,62,0,0,0,188.28,155.05ZM173,148.55l-36.26,21.09v-42.1A51.9,51.9,0,0,1,173,148.55Zm-36.4,27.71v.09l-.09-.06ZM89.08,147.49l.17.11a52.79,52.79,0,0,1,35.88-20.52c1.58-.17,3.15-.54,4.73-.63a10.52,10.52,0,0,0-1.37.23,15.68,15.68,0,0,1-3.75.8v41.9L89.06,147.6a20.69,20.69,0,0,0-1.31,1.92Zm-6.22,53.39c-.34-.77-.69-1.55-1-2.35a50.86,50.86,0,0,1-3.58-18.94,51.89,51.89,0,0,1,5-22.21l-.14-.09,1-1.66c-.31.57-.6,1.15-.86,1.75l36.4,22.1L98.8,191.62Zm41.89,30.81a51.8,51.8,0,0,1-36.19-20.92l-.15.11-1.15-2c.43.66.71,1.29,1.19,1.92l36.3-21.21Zm12-.06V189.79l17,10.37,18.61,11.26A53.2,53.2,0,0,1,136.75,231.63Zm41.44-30-11.29-6.88-24.79-15,33.42-19.43,3.09-1.81c.06.14.14.29.2.46a51.27,51.27,0,0,1,4.27,20.66,52.74,52.74,0,0,1-.75,8.86A51.26,51.26,0,0,1,178.19,201.63Z"/>
              <circle class="cls-2" cx="131.95" cy="179.6" r="42.99"/>
            </g>
          </g>
        </g>
      </g>
    </g>
  </g>
</svg>
