<svg xmlns="http://www.w3.org/2000/svg" viewBox="0 0 346.17 373.51">
  <defs>
    <style>
      .cls-1 {
        fill: #fff;
      }

      .cls-2 {
        fill: #d00027;
      }
    </style>
  </defs>
  <title>Bournemouth</title>
  <g id="Layer_2" data-name="Layer 2">
    <g id="Layer_1-2" data-name="Layer 1">
      <rect class="cls-1" x="164.33" y="225.96" width="10" height="74.27" rx="5" ry="5" transform="translate(-136.44 196.79) rotate(-45)"/>
      <g>
        <path class="cls-2" d="M300,241.9q-3.3,5.49-6.61,10.65a469.39,469.39,0,0,1-27.69,38.69q-1.47,1.88-3,3.72a436.88,436.88,0,0,1-51.19,53.75l-.15.13c-12.13,10.56-23.13,18.48-31.89,23.1a13.87,13.87,0,0,1-12.82,0c-7.37-3.89-16.52-10.28-26.68-18.71l-.46-.38c-7.27-6.06-15-13.14-23-21.09a476.48,476.48,0,0,1-58.28-70.54q-2.45-3.63-4.9-7.42l-1.92-3C25.14,209.38,0,154.38,0,95.75A192.48,192.48,0,0,1,7.45,42.19L8,40.3a13.81,13.81,0,0,1,10.57-9.71L51.36,24l.15,0,88-17.58.46-.09L170.38.27a13.68,13.68,0,0,1,5.41,0l35.57,7.1.15,0,88,17.58.46.09,27.63,5.52a13.82,13.82,0,0,1,10.55,9.68l.54,1.86C360.34,116.18,331.2,189.92,300,241.9Z"/>
        <g>
          <path d="M300.17,25V241.9c-2,3.66-4.43,7.21-6.63,10.65-8.72,13.61-18.19,26.6-27.71,38.69-1,1.25-1.72,2.49-2.72,3.72-17.24,21.49-34.94,40-50.94,53.88V7.4Z"/>
          <path d="M140.17,6.43v346.8c-7-6.14-15.44-13.35-23.61-21.47a476.41,476.41,0,0,1-58.26-70.54c-1.63-2.42-3.05-4.89-4.61-7.42-.61-1-1.52-2-1.52-3V24Z"/>
        </g>
        <g>
          <path class="cls-1" d="M98,160.91H76.24a4.19,4.19,0,0,0-3.66,2.15l-2,3.62a4.17,4.17,0,0,0-.47,2.82A66.59,66.59,0,0,0,95.54,210a4.17,4.17,0,0,0,2.5.82h0a4.19,4.19,0,0,0,3.66-2.15l11.6-20.79a4.19,4.19,0,0,0,0-4.08l-11.6-20.79A4.19,4.19,0,0,0,98,160.91Z"/>
          <path class="cls-1" d="M150.38,121.48l11.8-21.16a3.82,3.82,0,0,0,0-3.72h0a3.81,3.81,0,0,0-1.9-1.69,66.81,66.81,0,0,0-49.63,0,3.81,3.81,0,0,0-1.9,1.69h0a3.82,3.82,0,0,0,0,3.72l11.8,21.16a3.82,3.82,0,0,0,3.34,2H147A3.82,3.82,0,0,0,150.38,121.48Z"/>
          <path class="cls-1" d="M121.75,191.49l-12.81,23a2.81,2.81,0,0,0,0,2.74h0a2.82,2.82,0,0,0,1.39,1.24,66.8,66.8,0,0,0,50.29,0A2.82,2.82,0,0,0,162,217.2h0a2.81,2.81,0,0,0,0-2.74l-12.82-23a2.81,2.81,0,0,0-2.45-1.44H124.2A2.81,2.81,0,0,0,121.75,191.49Z"/>
          <path class="cls-1" d="M169.23,163.06l-11.59,20.78a4.19,4.19,0,0,0,0,4.09l11.59,20.78a4.19,4.19,0,0,0,3.66,2.15h0a4.17,4.17,0,0,0,2.51-.82,66.6,66.6,0,0,0,25.45-40.55,4.17,4.17,0,0,0-.47-2.82l-2-3.62a4.19,4.19,0,0,0-3.66-2.15H172.89A4.19,4.19,0,0,0,169.23,163.06Z"/>
          <path class="cls-1" d="M113,125l-10.69-19.17a5.26,5.26,0,0,0-7.82-1.62,66.53,66.53,0,0,0-24.86,42.35,5.25,5.25,0,0,0,5.22,6H97.41a5.27,5.27,0,0,0,4.6-2.7l11-19.71A5.27,5.27,0,0,0,113,125Z"/>
          <path class="cls-1" d="M174.16,152.58h20.63a6.35,6.35,0,0,0,6.27-7.42,66.52,66.52,0,0,0-23.48-40A6.37,6.37,0,0,0,168,107l-9.77,17.52a6.36,6.36,0,0,0,0,6.19l10.39,18.62A6.36,6.36,0,0,0,174.16,152.58Z"/>
          <path class="cls-1" d="M119.56,135.53l-9.39,16.84a7.33,7.33,0,0,0,0,7.14L120.45,178a7.33,7.33,0,0,0,6.4,3.76h17.22a7.33,7.33,0,0,0,6.4-3.76l10.29-18.46a7.33,7.33,0,0,0,0-7.14l-9.39-16.84a7.33,7.33,0,0,0-6.4-3.76H126A7.33,7.33,0,0,0,119.56,135.53Z"/>
        </g>
        <rect class="cls-1" x="231.33" y="173.96" width="10" height="74.27" rx="5" ry="5" transform="translate(-80.05 228.94) rotate(-45)"/>
        <rect class="cls-1" x="213.33" y="205.82" width="10" height="102.55" rx="5" ry="5" transform="translate(-117.85 229.68) rotate(-45)"/>
      </g>
    </g>
  </g>
</svg>
