<svg xmlns="http://www.w3.org/2000/svg" viewBox="0 0 322.34 370.16">
  <defs>
    <style>
      .cls-1 {
        fill: #90cdf5;
        stroke: #5e0135;
        stroke-miterlimit: 10;
        stroke-width: 20px;
      }

      .cls-2 {
        fill: #fef300;
      }

      .cls-3 {
        fill: none;
      }

      .cls-4 {
        fill: #5e0135;
      }
    </style>
  </defs>
  <title>Burnely</title>
  <g id="Layer_2" data-name="Layer 2">
    <g id="Layer_1-2" data-name="Layer 1">
      <g id="Burnley">
        <path class="cls-1" d="M161.49,10H20.3A10.3,10.3,0,0,0,10,20.3c0,36.87,0,161.42,0,187.24a10.37,10.37,0,0,0,.16,1.84c12.47,69,61,119.42,147.5,150.18a10.37,10.37,0,0,0,6.94,0c86.53-30.76,135.07-81.16,147.54-150.18a10.37,10.37,0,0,0,.16-1.84c0-25.81,0-150.37,0-187.23A10.3,10.3,0,0,0,302,10H160.69"/>
        <path class="cls-2" d="M243.49,195.82c0-17,.08-80.87.08-100.26A5.61,5.61,0,0,0,237.9,90H84.44a5,5,0,0,0-5.14,5.33v102c0,.33-.21.67-.15,1s.19.91.27,1.36a87.57,87.57,0,0,0,2.7,11.61,90.35,90.35,0,0,0,7.3,16.55,89.41,89.41,0,0,0,5.72,8.84c1,1.36,2,2.69,3.11,4,.26.33.54.67.82,1l.15.17c1.36,1.62,2.78,3.19,4.28,4.74.3.32.61.63.92.95q19.95,20.15,54.8,32.58a5.61,5.61,0,0,0,3.79,0c26.57-9.44,46.56-22.29,60.16-38.44a90.18,90.18,0,0,0,16.93-30.39c.51-1.56,1-3.15,1.42-4.76.63-2.24,1.14-4.53,1.59-6.85.08-.45.11-.9.19-1.36a5.57,5.57,0,0,0,0-1V196"/>
        <g>
          <rect class="cls-3" x="136.3" y="167" width="38" height="28"/>
          <rect class="cls-4" x="136.3" y="167" width="38" height="28" rx="4.63" ry="4.63"/>
        </g>
        <g>
          <rect class="cls-3" x="113.3" y="190" width="38" height="28"/>
          <rect class="cls-4" x="113.3" y="190" width="38" height="28" rx="4.63" ry="4.63"/>
        </g>
        <path class="cls-3" d="M127.3,214v27h-29c-1.09-2-2.18-2.8-3.17-4.16-2.09-2.85-3.78-6-5.78-9V214Z"/>
        <path class="cls-4" d="M89.3,228v-9.69A4.47,4.47,0,0,1,94.06,214H122.8a4.43,4.43,0,0,1,4.53,3.84,2.45,2.45,0,0,1,0,.47V237a4.85,4.85,0,0,1-1.71,3.79,4.51,4.51,0,0,1-2.8,1.16H99.3"/>
        <g>
          <rect class="cls-3" x="148.3" y="167" width="38" height="28"/>
          <rect class="cls-4" x="148.3" y="167" width="38" height="28" rx="4.63" ry="4.63"/>
        </g>
        <g>
          <rect class="cls-3" x="171.3" y="190" width="38" height="28"/>
          <rect class="cls-4" x="171.3" y="190" width="38" height="28" rx="4.63" ry="4.63"/>
        </g>
        <path class="cls-4" d="M223.3,242H200.06a4.87,4.87,0,0,1-2.92-1.16A5,5,0,0,1,195.3,237V218.31c0-.21.07-.26.1-.47a4.56,4.56,0,0,1,4.65-3.84H228.8a4.25,4.25,0,0,1,4.5,4.31V228"/>
        <path class="cls-4" d="M98.26,240.68c-1.09-1.31-2.12-2.64-3.11-4"/>
      </g>
    </g>
  </g>
</svg>
