<svg xmlns="http://www.w3.org/2000/svg" viewBox="0 0 370 370">
  <defs>
    <style>
      .cls-1 {
        fill: #fff;
      }

      .cls-2 {
        fill: #d39c00;
      }

      .cls-3 {
        fill: #072b84;
      }

      .cls-4, .cls-5, .cls-6, .cls-7, .cls-8 {
        fill: none;
        stroke-linecap: round;
      }

      .cls-4, .cls-5, .cls-6, .cls-7 {
        stroke: #072b84;
      }

      .cls-4, .cls-5 {
        stroke-miterlimit: 10;
      }

      .cls-4 {
        stroke-width: 7.82px;
      }

      .cls-5 {
        stroke-width: 8.53px;
      }

      .cls-6, .cls-7, .cls-8 {
        stroke-linejoin: round;
      }

      .cls-6 {
        stroke-width: 19.9px;
      }

      .cls-7 {
        stroke-width: 12px;
      }

      .cls-8 {
        stroke: #ff0339;
        stroke-width: 8.42px;
      }
    </style>
  </defs>
  <title>Chelsea</title>
  <g id="Layer_2" data-name="Layer 2">
    <g id="Layer_1-2" data-name="Layer 1">
      <g>
        <circle class="cls-1" cx="185" cy="185" r="185"/>
        <path class="cls-2" d="M185,47.3A137.7,137.7,0,1,1,87.63,87.63,136.8,136.8,0,0,1,185,47.3M185,0C82.83,0,0,82.83,0,185S82.83,370,185,370s185-82.83,185-185S287.17,0,185,0Z"/>
        <g>
          <g>
            <g>
              <g>
                <g>
                  <path class="cls-3" d="M154.29,162a10.43,10.43,0,1,1-10.43,10.43A10.44,10.44,0,0,1,154.29,162m0-18.48a28.91,28.91,0,1,0,28.91,28.91,28.91,28.91,0,0,0-28.91-28.91Z"/>
                  <path class="cls-3" d="M128,109.81a5.77,5.77,0,1,1-5.77,5.77,5.78,5.78,0,0,1,5.77-5.77m0-10.23a16,16,0,1,0,16,16,16,16,0,0,0-16-16Z"/>
                  <circle class="cls-3" cx="127.99" cy="246.02" r="8.89"/>
                  <line class="cls-4" x1="127.99" y1="131.57" x2="127.99" y2="237.13"/>
                  <line class="cls-5" x1="114.72" y1="236.42" x2="141.02" y2="236.42"/>
                </g>
                <g>
                  <g>
                    <g>
                      <path class="cls-3" d="M179.05,112.5a13.68,13.68,0,1,1-27.37-.33h13.15V98.63A14,14,0,0,1,179.05,112.5Z"/>
                      <path class="cls-3" d="M165.83,99.67c0,.51,12.22,6.06,12.22,12.82a12.67,12.67,0,0,1-25.33.67h13.11v-13m-1-1.53v13.53H151.69a13.71,13.71,0,0,0,13.77,14,13.56,13.56,0,0,0,13.59-13.78,13.88,13.88,0,0,0-14.22-13.78Z"/>
                    </g>
                    <g>
                      <path class="cls-3" d="M211.63,115.41a37.43,37.43,0,0,1-37.38,37.29,39.05,39.05,0,0,1-9.42-1.08V112.17H211.5C211.59,113.17,211.63,114.37,211.63,115.41Z"/>
                      <path class="cls-3" d="M210.57,113.17s.06,1.55.06,2.24a36.47,36.47,0,0,1-36.38,36.29,39.88,39.88,0,0,1-8.42-.86V113.17h45m.67-1H164.83v39.45a39.09,39.09,0,0,0,9.42,1.16,37.42,37.42,0,0,0,37.29-37.37c0-1,0-2.24,0-3.24Z"/>
                    </g>
                  </g>
                  <g>
                    <path class="cls-3" d="M179.05,112.5a13.68,13.68,0,1,1-27.37-.33h13.15V98.63A14,14,0,0,1,179.05,112.5Z"/>
                    <path class="cls-3" d="M211.63,115.41a37.43,37.43,0,0,1-37.38,37.29,39.05,39.05,0,0,1-9.42-1.08V112.17H211.5C211.59,113.17,211.63,114.37,211.63,115.41Z"/>
                  </g>
                </g>
              </g>
              <g>
                <path class="cls-6" d="M201.21,219.83H158.08c1.72,18.92,2.18,31.62-1.68,39.2-7.3,14.35-21.3,12.22-21.3,12.22"/>
                <path class="cls-6" d="M204.05,219.83c-2.16,18.52,6.73,19.21,23,18.49,1.72,18.92,2.18,12.42-1.68,20-7.3,14.35-21.3,12.22-21.3,12.22"/>
              </g>
            </g>
            <path class="cls-3" d="M211.16,212.49h-23.1c-12.63,0-22.86-13.08-22.86-25.7V140.46h22.39c12.63,0,23.57,13.08,23.57,25.7Z"/>
          </g>
          <g>
            <path class="cls-7" d="M240.15,143.17s14.59-2.11,14.59,14.51c0,13.42-1.4,11.49-1.4,11.49H230.83v29.11c0,6.8-5,12.89-11.85,12.89H208.83"/>
            <path class="cls-7" d="M257.19,201.59s2.72-7.42-2.43-9.42H230.83"/>
          </g>
        </g>
        <path class="cls-8" d="M214.78,130.61s8.2.65,12.09-4.75"/>
      </g>
    </g>
  </g>
</svg>
