<svg xmlns="http://www.w3.org/2000/svg" viewBox="0 0 328.52 371.95">
  <defs>
    <style>
      .cls-1 {
        fill: #a8a9ad;
      }

      .cls-2 {
        fill: #c70b2b;
      }

      .cls-3 {
        fill: #004692;
      }
    </style>
  </defs>
  <title>Crystal Palace</title>
  <g id="Layer_2" data-name="Layer 2">
    <g id="Layer_1-2" data-name="Layer 1">
      <g id="Crystal_Palace" data-name="Crystal Palace">
        <g>
          <path class="cls-1" d="M10,10H318.52a0,0,0,0,1,0,0V207.69A154.26,154.26,0,0,1,164.26,362h0A154.26,154.26,0,0,1,10,207.69V10a0,0,0,0,1,0,0Z"/>
          <path class="cls-2" d="M164.26,372C73.69,372,0,298.26,0,207.69V0H328.52V207.69C328.52,298.26,254.83,372,164.26,372ZM20,20V207.69C20,287.24,84.71,352,164.26,352s144.26-64.71,144.26-144.26V20Z"/>
        </g>
        <path id="Crystal_Palace-2" data-name="Crystal Palace" class="cls-3" d="M65.68,48.51c-14.5,12.6-18.57,34.34,0,75.94l94.72,69L91.25,219c7.77,13.1,22.5,26.63,51.92,41.07L161,232.92l13.17,14.72-14.72,18.6,10.07,3.1,11.62-13.95,21.7,13.95V259.27L192,245.32l6.2-7.75-.3-23.36,16.57-27.78,24,1.55,3.87,9.3c4.78-6.49,5.55-13.39,0-20.92-3.36-11.17-13.46-14.64-27.89-13.17l-13.17-.77,8.52-16.27,49.59-42.32c15.5-25.87,7.18-57.57-10.07-55.31L203.6,108.17l-17.82,25.57-10.85,25.13-18.6-22.8"/>
      </g>
    </g>
  </g>
</svg>
