<svg xmlns="http://www.w3.org/2000/svg" viewBox="0 0 337.71 369.94">
  <defs>
    <style>
      .cls-1 {
        fill: #f6d921;
      }

      .cls-2 {
        fill: #1f3a93;
      }

      .cls-3 {
        fill: #fcfeef;
      }

      .cls-4 {
        fill: #002da4;
      }
    </style>
  </defs>
  <title>Everton</title>
  <g id="Layer_2" data-name="Layer 2">
    <g id="Layer_1-2" data-name="Layer 1">
      <g id="Everton">
        <path class="cls-1" d="M337.06,184.64c-23.57-62.73-17-100.85.2-156.68a10.13,10.13,0,0,0-11-13,355.21,355.21,0,0,1-47.36,3.24A332,332,0,0,1,172.11.53a10.21,10.21,0,0,0-6.5,0A332,332,0,0,1,58.84,18.19a355.17,355.17,0,0,1-47.35-3.24,10.14,10.14,0,0,0-11,13c17.18,55.83,23.78,94,.2,156.68A10.08,10.08,0,0,0,0,188.2,169.62,169.62,0,0,0,111.91,347.43c5.19,1.87,10.82,5.23,16.79,8.44,11.93,6.42,25.44,14.07,40.14,14.07h0c14.7,0,28.22-7.65,40.15-14.07,6-3.22,11.59-6.41,16.77-8.28A169.72,169.72,0,0,0,337.71,188.28,10.55,10.55,0,0,0,337.06,184.64ZM218.95,328.37c-6.61,2.38-13.18,5.92-19.53,9.34-10.31,5.55-21,11.29-30.56,11.32s-20.25-5.77-30.56-11.32c-6.35-3.42-12.91-7-19.53-9.34A149.31,149.31,0,0,1,20.27,190C44,125.47,37.33,84.32,24.14,36.79c11.65,1.1,23.27,1.66,34.69,1.66a352.26,352.26,0,0,0,110-17.63,352.24,352.24,0,0,0,110,17.63c11.43,0,23.05-.56,34.71-1.66-13.2,47.54-19.91,88.69,3.87,153.2A149.33,149.33,0,0,1,218.95,328.37Z"/>
        <path class="cls-2" d="M199.42,337.68c-10.31,5.55-21,11.29-30.56,11.32s-20.25-5.77-30.56-11.32c-6.35-3.42-12.91-7-19.53-9.34A149.31,149.31,0,0,1,20.27,190C44,125.45,37.33,84.3,24.14,36.76c11.65,1.1,23.27,1.66,34.69,1.66a352.26,352.26,0,0,0,110-17.63,352.24,352.24,0,0,0,110,17.63c11.43,0,23.05-.56,34.71-1.66-13.2,47.54-19.91,88.69,3.87,153.2a149.33,149.33,0,0,1-98.5,138.38C212.33,330.73,205.77,334.26,199.42,337.68Z"/>
        <g>
          <path class="cls-3" d="M225.33,254.94h-113c-4.08,0-7.18-3.62-6.56-6.65l5.73-28.45,0-.28,0-.22,8.82-43.24.06-.32,0-.09,7.76-38c.5-2.45,3.28-3.44,6.56-3.44,17.46-3.2,34.78-7.37,52-1.37h0a79.56,79.56,0,0,1,15,1.36c3.25,0,5.75,1.37,6.27,3.79l2.86,14.25v0l6.92,30.89L225,216.12l6.78,32.15C232.46,251.32,229.41,254.94,225.33,254.94Z"/>
          <path class="cls-3" d="M190.66,116.84c-7.51-.41-15-.91-22.55-.91h-.5c-7.34,0-14.7.52-22.05.91a11.16,11.16,0,0,1-11.78-9.47,10.51,10.51,0,0,1,0-3.42,10.67,10.67,0,0,1,1-3.15,4.45,4.45,0,0,1,.33-.6l23.16-40.09a11.26,11.26,0,0,1,19.52,0l5,8.75,15.59,27,2.53,4.23A11.17,11.17,0,0,1,190.66,116.84Z"/>
          <path class="cls-4" d="M210.92,152.33v0l-99.61,66.93-.1.27.19-.12.11-.14,8.86-43.2.14.44,66.26-43.57h0a79.56,79.56,0,0,1,15,1.36c3.25,0,5.75,1.37,6.27,3.79Z"/>
          <path class="cls-4" d="M198.5,95.87l-30.57,20.41-.33.22q-11,0-22.05.62a11.23,11.23,0,0,1-11.78-9.67,10.77,10.77,0,0,1,0-3.47,11.5,11.5,0,0,1,1-3.12l48.06-32Z"/>
          <polygon class="cls-4" points="225.16 216.12 169.79 253.82 169.02 254.94 112.9 254.94 113.67 253.82 218.12 183.54 225.16 216.12"/>
        </g>
      </g>
    </g>
  </g>
</svg>
