<svg xmlns="http://www.w3.org/2000/svg" viewBox="0 0 353.13 408.92">
  <defs>
    <style>
      .cls-1, .cls-3 {
        fill: none;
      }

      .cls-1 {
        stroke: #fff;
        stroke-linecap: square;
        stroke-linejoin: round;
        stroke-width: 42.76px;
      }

      .cls-2 {
        fill: #e5a300;
      }
    </style>
  </defs>
  <title>Hull</title>
  <g id="Layer_2" data-name="Layer 2">
    <g id="Layer_1-2" data-name="Layer 1">
      <g>
        <path class="cls-1" d="M331.75,233.54V21.38H21.83V233.54C12,387.39,165.16,343.75,176.57,387.54c11.41-43.79,164.55-.15,154.73-154V21.38H21.38V233.54"/>
        <path class="cls-2" d="M331.75,233.54V21.38H21.83V233.54C12,387.39,165.16,343.75,176.57,387.54c11.41-43.79,164.55-.15,154.73-154V21.38H21.38V233.54"/>
        <path class="cls-3" d="M55.32,274.79"/>
        <path d="M45.36,238.93s-.37-1.23-1-3.54c-.14-.58-.32-1.22-.48-1.94l-.42-2.4c-.14-.87-.32-1.83-.45-2.84L42.76,225A57.65,57.65,0,0,1,44,208a43.17,43.17,0,0,1,1.42-5.12c.3-.87.58-1.77.92-2.66l1.15-2.67c.2-.45.39-.91.61-1.37l.7-1.34c.48-.89,1-1.82,1.48-2.72a61.64,61.64,0,0,1,3.56-5.33c1.27-1.81,2.75-3.44,4.24-5.18s3.16-3.31,4.89-4.83a86.73,86.73,0,0,1,11.21-8.6A156.8,156.8,0,0,1,99.77,155c8.88-3.69,18-6.91,26.86-10s17.68-6.2,26-9.58c2.1-.82,4.12-1.7,6.16-2.56s4-1.77,5.93-2.72,3.83-1.91,5.73-2.85,3.7-2,5.47-3a109.43,109.43,0,0,0,10.17-6.62c1.64-1.14,3.14-2.39,4.7-3.59s3-2.47,4.38-3.83a108.31,108.31,0,0,0,8-8.18c2.41-2.9,4.79-5.81,6.87-8.87a138.68,138.68,0,0,0,10.83-18.58c.73-1.56,1.53-3.05,2.17-4.59l2-4.49,1.78-4.37.87-2.11.78-2.08,1.51-4c.48-1.29.88-2.56,1.33-3.77l1.25-3.5,1.08-3.23,1.87-5.51c.5-1.62,1-3,1.34-4.13.75-2.25,1.21-3.46,1.21-3.46s.35,1.23.9,3.55a102.26,102.26,0,0,1,2,10.17c.16,1.1.39,2.28.5,3.5l.38,3.86c.33,2.7.4,5.62.53,8.77l.08,2.41,0,2.48c0,1.68-.07,3.42-.14,5.2-.26,3.56-.52,7.34-1.15,11.28a111.3,111.3,0,0,1-6.77,25.29,104.74,104.74,0,0,1-6.43,13.27c-1.33,2.16-2.62,4.4-4.14,6.52l-2.27,3.22c-.78,1.07-1.63,2.08-2.46,3.13-1.63,2.12-3.46,4.08-5.28,6.1s-3.78,3.92-5.84,5.71-4.13,3.6-6.27,5.35c-1.08.85-2.19,1.65-3.3,2.47s-2.23,1.62-3.36,2.39a129.6,129.6,0,0,1-14.08,8.39c-4.8,2.54-9.72,4.72-14.62,6.71a263.08,263.08,0,0,1-29.12,9.57c-9.47,2.59-18.57,4.73-27.07,6.86A237.65,237.65,0,0,0,86.8,192.4a89.66,89.66,0,0,0-9.67,4.13c-1.53.71-2.88,1.55-4.31,2.31s-2.68,1.65-3.89,2.55a49.78,49.78,0,0,0-12,12,67.49,67.49,0,0,0-6.94,12.69l-1.14,2.78c-.34.88-.63,1.71-.92,2.49l-.79,2.19c-.24.69-.42,1.33-.6,1.89C45.79,237.72,45.36,238.93,45.36,238.93Z"/>
        <path d="M71,292.44s-.41-1.35-1-3.88c-.15-.64-.36-1.33-.52-2.12L69,283.81c-.15-1-.36-2-.49-3.12l-.31-3.54a34.66,34.66,0,0,1-.16-4c0-1.41,0-2.9.12-4.45a46.65,46.65,0,0,1,.48-4.89,50.53,50.53,0,0,1,1-5.28,61.05,61.05,0,0,1,11-23.15,72.45,72.45,0,0,1,4.7-5.63c1.71-1.77,3.49-3.59,5.4-5.24A96.6,96.6,0,0,1,103,215.19a174,174,0,0,1,28.08-14.29c9.74-4,19.69-7.51,29.47-10.9s19.41-6.73,28.54-10.39c4.6-1.78,9-3.73,13.31-5.72,2.17-1,4.22-2.07,6.32-3.09s4.08-2.16,6-3.3A118.87,118.87,0,0,0,226,160.33c1.8-1.24,3.48-2.58,5.18-3.89.84-.67,1.62-1.38,2.45-2.05l1.23-1c.4-.35.78-.71,1.17-1.07a117.38,117.38,0,0,0,8.83-8.88c.68-.78,1.32-1.58,2-2.37s1.36-1.54,2-2.37c1.23-1.64,2.53-3.21,3.66-4.89a149.49,149.49,0,0,0,12-20.24c.81-1.7,1.68-3.34,2.41-5l2.2-4.9c.7-1.61,1.3-3.22,2-4.77l1-2.31.86-2.27,1.66-4.36c.29-.7.52-1.4.75-2.09l.73-2c1-2.65,1.82-5.12,2.56-7.37l1.07-3.2c.34-1,.71-2,1-2.84.55-1.77,1.06-3.29,1.48-4.52.83-2.47,1.33-3.8,1.33-3.8s.38,1.35,1,3.9a111.05,111.05,0,0,1,2.14,11.15c.17,1.21.43,2.5.55,3.84l.42,4.23c.35,3,.47,6.17.56,9.62,0,.86.07,1.75.07,2.64l-.05,2.72c0,1.85-.08,3.75-.18,5.71s-.32,4-.49,6c-.07,1-.21,2.08-.36,3.13l-.45,3.2A120.9,120.9,0,0,1,279,147.95a114,114,0,0,1-7.19,14.5c-1.49,2.35-2.9,4.82-4.61,7.11l-2.51,3.51-2.73,3.4c-.46.57-.92,1.14-1.39,1.7L259,179.81c-1,1.1-2,2.21-3,3.27-2.1,2.09-4.18,4.25-6.45,6.2s-4.57,3.88-6.91,5.8-4.83,3.61-7.34,5.25a142.59,142.59,0,0,1-15.48,9.06c-5.27,2.73-10.67,5.1-16,7.25A292.94,292.94,0,0,1,171.92,227c-10.38,2.8-20.36,5.11-29.69,7.42s-17.94,4.64-25.55,7.4A101.21,101.21,0,0,0,106,246.26c-1.68.78-3.18,1.67-4.74,2.5s-3,1.78-4.29,2.75a53.72,53.72,0,0,0-13.29,13,66.38,66.38,0,0,0-4.45,7.12c-.69,1.15-1.2,2.33-1.74,3.45-.26.56-.53,1.12-.8,1.66s-.47,1.09-.69,1.62l-1.25,3c-.38,1-.69,1.87-1,2.72l-.87,2.4c-.27.75-.46,1.46-.66,2.07C71.46,291.12,71,292.44,71,292.44Z"/>
        <path d="M109.92,340.85s-.37-1.23-1-3.54c-.14-.58-.32-1.22-.48-1.94l-.42-2.4c-.14-.87-.32-1.83-.45-2.84l-.29-3.23a57.65,57.65,0,0,1,1.22-17,43.17,43.17,0,0,1,1.42-5.12c.3-.87.58-1.77.92-2.66l1.15-2.67c.2-.45.39-.91.61-1.37l.7-1.34c.48-.89,1-1.82,1.48-2.72a61.63,61.63,0,0,1,3.56-5.33c1.27-1.81,2.75-3.44,4.24-5.18s3.16-3.31,4.89-4.83a86.74,86.74,0,0,1,11.21-8.6,156.79,156.79,0,0,1,25.6-13.18c8.88-3.69,18-6.91,26.86-10s17.68-6.2,26-9.58c2.1-.82,4.12-1.7,6.16-2.56s4-1.77,5.93-2.72,3.83-1.91,5.73-2.85,3.7-2,5.47-3a109.44,109.44,0,0,0,10.17-6.62c1.64-1.14,3.14-2.39,4.7-3.59s3-2.47,4.38-3.83a108.31,108.31,0,0,0,8-8.18c2.41-2.9,4.79-5.81,6.87-8.87a138.68,138.68,0,0,0,10.83-18.58c.73-1.56,1.53-3.05,2.17-4.59l2-4.49,1.78-4.37.87-2.11.78-2.08,1.51-4c.48-1.29.88-2.56,1.33-3.77l1.25-3.5,1.08-3.23,1.87-5.51c.5-1.62,1-3,1.34-4.13.75-2.25,1.21-3.46,1.21-3.46s.35,1.23.9,3.55a102.25,102.25,0,0,1,2,10.17c.16,1.1.39,2.28.5,3.5l.38,3.86c.33,2.7.4,5.62.53,8.77l.08,2.41,0,2.48c0,1.68-.07,3.42-.14,5.2-.26,3.56-.52,7.34-1.15,11.28a111.3,111.3,0,0,1-6.77,25.29A104.73,104.73,0,0,1,292.42,221c-1.33,2.16-2.62,4.4-4.14,6.52L286,230.79c-.78,1.07-1.63,2.08-2.46,3.13-1.63,2.12-3.46,4.08-5.28,6.1s-3.78,3.92-5.84,5.71-4.13,3.6-6.27,5.35c-1.08.85-2.19,1.65-3.3,2.47s-2.23,1.62-3.36,2.39a129.61,129.61,0,0,1-14.08,8.39c-4.8,2.54-9.72,4.72-14.62,6.71a263.07,263.07,0,0,1-29.12,9.57c-9.47,2.59-18.57,4.73-27.07,6.86a237.67,237.67,0,0,0-23.25,6.85,89.67,89.67,0,0,0-9.67,4.13c-1.53.71-2.88,1.55-4.31,2.31s-2.68,1.65-3.89,2.55a49.78,49.78,0,0,0-12,12A67.49,67.49,0,0,0,114.51,328l-1.14,2.78c-.34.88-.63,1.71-.92,2.49l-.79,2.19c-.24.69-.42,1.33-.6,1.89C110.36,339.64,109.92,340.85,109.92,340.85Z"/>
      </g>
    </g>
  </g>
</svg>
