<svg xmlns="http://www.w3.org/2000/svg" viewBox="0 0 367.24 367.24">
  <defs>
    <style>
      .cls-1 {
        fill: none;
        stroke: #5e0135;
        stroke-miterlimit: 10;
      }

      .cls-2 {
        fill: #00449b;
      }

      .cls-3 {
        fill: #fff;
      }

      .cls-4 {
        fill: #fabd00;
      }
    </style>
  </defs>
  <title>Leicester</title>
  <g id="Layer_2" data-name="Layer 2">
    <g id="Layer_1-2" data-name="Layer 1">
      <g id="Leicester">
        <path class="cls-1" d="M180.16,228.62"/>
        <path class="cls-2" d="M183.62,367.24C82.37,367.24,0,284.87,0,183.62S82.37,0,183.62,0,367.24,82.37,367.24,183.62,284.87,367.24,183.62,367.24Zm0-337.24C98.91,30,30,98.91,30,183.62S98.91,337.24,183.62,337.24s153.62-68.91,153.62-153.62S268.33,30,183.62,30Z"/>
        <circle class="cls-3" cx="180.16" cy="183.62" r="115.44"/>
        <g>
          <circle class="cls-2" cx="183.62" cy="183.62" r="99.73"/>
          <path class="cls-4" d="M182.79,135l28.1,3.11,38.84-25.63L238.85,163l8.89,35.55a7.19,7.19,0,0,1-2.9,7.67L201.57,236l-3.11,27.19s-11.31,7.75-15.39,11.06c-4.13-3.32-15.69-11.06-15.69-11.06L164.28,236,124.46,208.4a12.66,12.66,0,0,1-5.05-13.55L127.56,163,116.73,112.5l38.86,25.63L183.53,135"/>
        </g>
      </g>
    </g>
  </g>
</svg>
