<svg xmlns="http://www.w3.org/2000/svg" viewBox="0 0 346.17 343">
  <defs>
    <style>
      .cls-1 {
        fill: #fff;
      }

      .cls-2 {
        fill: #d00027;
      }
    </style>
  </defs>
  <title>Liverpool</title>
  <g id="Layer_2" data-name="Layer 2">
    <g id="Layer_1-2" data-name="Layer 1">
      <g>
        <path class="cls-1" d="M293.36,220.25c-37.3,58.24-86.52,105-113.89,119.39L173.06,343l-6.41-3.36c-25.5-13.45-72.18-56.81-108.47-110.72C29.68,186.58,0,127.16,0,63.45A192,192,0,0,1,7.45,9.92L10.32,0H335.81l2.89,9.87C361.86,89.12,326.84,168,293.36,220.25Z"/>
        <path class="cls-2" d="M216.33,214.5c-4.26,4.4-9,7.5-13.95,11.5h8.78c0,13-20.52,28-45.83,28-19.39,0-36-8.6-42.64-18.75-7.87-6.44-14.46-15.49-16.85-26.14C100.72,186.29,114,163.5,133,154.7V137.62c-3-1-4.25-2.61-6.39-4.62a22.84,22.84,0,0,1-5.11-7.7L109.11,132a18.48,18.48,0,0,1,7.63-24.79,16.5,16.5,0,0,1,2.38-1c2.7-10,11.63-16.45,22.2-16.45,8.5,0,15.94,4.13,19.93,11L173.8,87.88c6.82,6.27,7.65,17.12,1.82,25.12H177v33.5l37.88-39C244.29,136.06,245.41,184.54,216.33,214.5Z"/>
        <path class="cls-2" d="M338.69,9.87,335.81,0H10.32L7.45,9.92A192.07,192.07,0,0,0,0,63.47c0,63.71,29.68,123.12,58.18,165.46,36.28,53.92,83,97.27,108.47,110.72l6.41,3.35,6.41-3.36c27.37-14.41,76.59-61.14,113.89-119.37C326.84,168,361.86,89.12,338.69,9.87ZM31.36,28H314.84c1,4,1.82,9,2.42,13H29C29.54,37,30.34,32,31.36,28ZM270.2,205.32c-33.07,51.61-74.6,91.19-97.14,106.07-21.4-14.06-59.75-50-92-98C56.53,177,31,127,27.81,74h290.5C315.23,124,292.29,170.83,270.2,205.32Z"/>
      </g>
    </g>
  </g>
</svg>
