<svg xmlns="http://www.w3.org/2000/svg" viewBox="0 0 303.92 340.07">
  <defs>
    <style>
      .cls-1 {
        fill: #f7c240;
      }

      .cls-2 {
        fill: #5cbfeb;
      }

      .cls-3 {
        fill: #fff;
      }
    </style>
  </defs>
  <title>Man City</title>
  <g id="Layer_2" data-name="Layer 2">
    <g id="Layer_1-2" data-name="Layer 1">
      <g>
        <path class="cls-1" d="M98.59,102.83c7.16,4.82,14.87,9.48,27.82,10L119.57,151h65.34v-58l8.84-18.73c-9-5.95-17.39-4.76-25.69,5-19.72-13.61-35.35-8.36-50.48,0-14.54-4.79-21.67,2.38-27.75,11.4l17,4.11Z"/>
        <g>
          <circle class="cls-1" cx="75.32" cy="17.79" r="17.79"/>
          <circle class="cls-1" cx="151.96" cy="17.79" r="17.79"/>
          <circle class="cls-1" cx="228.59" cy="17.79" r="17.79"/>
        </g>
        <g>
          <path class="cls-2" d="M229.92,139V261.37a76.42,76.42,0,0,1-6.6,31.26s0,.25,0,.28C217.33,306.37,207.68,317,195.61,326h0c-.05,0-.08-.09-.14-.06-3,2.65-6.16,3.88-9.42,5.5l-.08,0c-10.26,5-21.81,8.61-34,8.61-3.75,0-7.42,0-11,0h0c-37.88-5-67-39.33-67-78.66V139Z"/>
          <path class="cls-3" d="M186,331.55A77.7,77.7,0,0,1,152,339.37a76.56,76.56,0,0,1-11-.79l-35.2-53.72c-1.51-2.27.11-5.83,2.85-5.83h41.52c1.15,0,2.22,1.09,2.85,2Z"/>
          <path class="cls-3" d="M223.28,292.91c-5.94,13.47-15.6,24.12-27.67,33.12h0c-.05,0-.08-.09-.14-.06l-26.74-41c-1.51-2.27.11-5.91,2.85-5.91h41.52c1.15,0,2.22,1.18,2.85,2.14Z"/>
        </g>
        <g>
          <path class="cls-1" d="M303.81,202.76C305.59,151.9,284.5,90.32,254,79.19a10.65,10.65,0,0,0-9.12.79c-11.07,6.7-29.84,31.1-46.84,64.56-1.11,2.18-1.11,14.13-.65,16.54l3.73,31c.23,1.19,4.18,7.47,4.78,8.52l61.92,105.71c3.93,6.92,16.66,7.53,21.38,1.12C301.46,290.74,302.26,247.11,303.81,202.76Z"/>
          <path class="cls-1" d="M.1,202.76C-1.67,151.9,19.41,90.32,50,79.19a10.65,10.65,0,0,1,9.12.79c11.07,6.7,29.84,31.1,46.84,64.56,1.11,2.18,1.11,14.13.65,16.54l-3.73,31c-.23,1.19-4.18,7.47-4.78,8.52L36.13,306.36c-3.93,6.92-16.66,7.53-21.38,1.12C2.45,290.74,1.65,247.11.1,202.76Z"/>
        </g>
      </g>
    </g>
  </g>
</svg>
