<svg xmlns="http://www.w3.org/2000/svg" viewBox="0 0 286.34 382.5">
  <defs>
    <style>
      .cls-1 {
        fill: #ffe500;
      }

      .cls-2 {
        fill: #da020e;
      }
    </style>
  </defs>
  <title>Man Utd</title>
  <g id="Layer_2" data-name="Layer 2">
    <g id="Layer_1-2" data-name="Layer 1">
      <g>
        <path class="cls-1" d="M269.19,307.65,163.83,376.36a37.81,37.81,0,0,1-41.31,0L17.16,307.65A37.81,37.81,0,0,1,0,276V29.59A29.59,29.59,0,0,1,29.59,0H256.75a29.59,29.59,0,0,1,29.59,29.59V276A37.81,37.81,0,0,1,269.19,307.65Z"/>
        <g>
          <g>
            <rect class="cls-2" x="125.3" y="180.54" width="36.53" height="129.94" transform="translate(389.07 101.95) rotate(90)"/>
            <g>
              <g>
                <rect class="cls-2" x="75.46" y="183.63" width="28.79" height="80.14"/>
                <polygon class="cls-2" points="65.13 186.5 89.83 138.26 114.54 186.5 65.13 186.5"/>
              </g>
              <g>
                <path class="cls-2" d="M128.37,183.63h28.79a0,0,0,0,1,0,0V313.19a14.39,14.39,0,0,1-14.39,14.39h0a14.39,14.39,0,0,1-14.39-14.39V183.63a0,0,0,0,1,0,0Z"/>
                <polygon class="cls-2" points="118.07 186.5 142.78 138.26 167.49 186.5 118.07 186.5"/>
              </g>
              <g>
                <rect class="cls-2" x="180.52" y="183.63" width="28.79" height="80.14"/>
                <polygon class="cls-2" points="170.99 186.5 195.69 138.26 220.4 186.5 170.99 186.5"/>
              </g>
            </g>
          </g>
          <g>
            <polygon class="cls-2" points="155.42 83.5 180.13 40.7 204.84 83.5 155.42 83.5"/>
            <polygon class="cls-2" points="83.84 83.5 108.55 40.7 133.25 83.5 83.84 83.5"/>
            <polygon class="cls-2" points="206.2 123.72 81.7 123.72 56.8 82.48 231.1 82.48 206.2 123.72"/>
          </g>
        </g>
      </g>
    </g>
  </g>
</svg>
