<svg xmlns="http://www.w3.org/2000/svg" viewBox="0 0 338.57 420.78">
  <defs>
    <style>
      .cls-1 {
        fill: #fff;
      }

      .cls-2, .cls-3, .cls-5 {
        fill: none;
        stroke: #f23c3c;
      }

      .cls-2 {
        stroke-miterlimit: 10;
        stroke-width: 27.13px;
      }

      .cls-3, .cls-5 {
        stroke-linecap: round;
        stroke-linejoin: round;
      }

      .cls-3 {
        stroke-width: 18.15px;
      }

      .cls-4 {
        fill: #f23c3c;
      }

      .cls-5 {
        stroke-width: 6.19px;
      }
    </style>
  </defs>
  <title>Middlesbrough</title>
  <g id="Layer_2" data-name="Layer 2">
    <g id="Layer_1-2" data-name="Layer 1">
      <g>
        <g>
          <path class="cls-1" d="M163.16,406.64C46.44,368.15,6.14,236,14.66,44.09q77.06-29.62,154.1-30.5Q246.35,12.71,323.93,41C332.66,239.2,289.22,373.53,163.16,406.64Z"/>
          <path class="cls-2" d="M163.16,406.64C46.44,368.15,6.14,236,14.66,44.09q77.06-29.62,154.1-30.5Q246.35,12.71,323.93,41C332.66,239.2,289.22,373.53,163.16,406.64Z"/>
        </g>
        <g>
          <g>
            <path class="cls-3" d="M206.23,252.49h-69c1.57,17.25,1.9,28.79-1.53,35.74-9.95,20.18-23.26,2.52-23.26,2.52"/>
            <path class="cls-3" d="M207.87,252.49c-2,16.88,6.14,17.52,21,16.86,1.57,17.25,2,20.91-1.53,27.83-6.66,13.09-19.43,11.14-19.43,11.14"/>
          </g>
          <g>
            <path class="cls-4" d="M194.13,92a15,15,0,0,0,12,17.59c8.21,1.47,16.06-5,17.33-12.12l-14.15-2.54L212,79.87C203,78.27,195.61,83.8,194.13,92Z"/>
            <path class="cls-4" d="M137.43,82a24.84,24.84,0,0,0-.77,3.16c-4,22,18.74,44.47,50.52,50.17a95.76,95.76,0,0,0,14.64,1.29l7.49-41.73Zm51.67,23.39-15.74-2.82,1.31-7.31a21.89,21.89,0,0,1,3.12.34c7.08,1.27,12.3,5.43,11.63,9.18A1.8,1.8,0,0,1,189.1,105.43Z"/>
            <g>
              <path class="cls-5" d="M119.34,106.37a7.74,7.74,0,0,0-15.23-2.73"/>
              <path class="cls-5" d="M134.67,108.64a7.74,7.74,0,0,1-15.23-2.73"/>
            </g>
          </g>
          <path class="cls-4" d="M172.81,129.5h21.75a0,0,0,0,1,0,0v89.16a0,0,0,0,1,0,0H175.07A34.69,34.69,0,0,1,140.38,184v-22A32.43,32.43,0,0,1,172.81,129.5Z" transform="translate(33.37 -26.84) rotate(10.17)"/>
          <path class="cls-4" d="M166.09,141.29l17,3.05c20,3.6,33.39,37.14,29.79,57.19l-5.2,29c-3.36,18.75.4,31.39-40,27.85l-19.39-3.48Z"/>
          <g>
            <path class="cls-3" d="M238,166.24l-7.9,44a17.34,17.34,0,0,1-20.13,14h0a17.34,17.34,0,0,1-14-20.13"/>
            <path class="cls-3" d="M232.5,197.07l5.1-28.44a11.2,11.2,0,0,1,13-9h0a11.2,11.2,0,0,1,9,13"/>
          </g>
          <g>
            <path class="cls-3" d="M154.63,171.64l-46.87-15a21.88,21.88,0,0,1-14.14-27.52"/>
            <path class="cls-3" d="M154.16,177.49l-37.24,32.19a21.88,21.88,0,0,1-30.86-2.25"/>
            <g>
              <circle class="cls-4" cx="76.31" cy="211.31" r="5.61" transform="translate(-60.46 33.07) rotate(-17.64)"/>
              <circle class="cls-4" cx="88.56" cy="198.56" r="5.61" transform="translate(-56.02 36.18) rotate(-17.64)"/>
              <circle class="cls-4" cx="77.73" cy="200.26" r="5.61" transform="translate(-57.04 32.98) rotate(-17.64)"/>
            </g>
            <g>
              <circle class="cls-4" cx="83.49" cy="125.37" r="5.61" transform="translate(-63.49 158.35) rotate(-68.99)"/>
              <circle class="cls-4" cx="101.02" cy="123.07" r="5.61" transform="translate(-50.09 173.24) rotate(-68.99)"/>
              <circle class="cls-4" cx="91.51" cy="117.63" r="5.61" transform="translate(-51.11 160.87) rotate(-68.99)"/>
            </g>
          </g>
        </g>
      </g>
    </g>
  </g>
</svg>
