<svg xmlns="http://www.w3.org/2000/svg" viewBox="0 0 333 401.64">
  <defs>
    <style>
      .cls-1 {
        fill: #fff;
      }

      .cls-2 {
        fill: none;
        stroke: #001c58;
        stroke-miterlimit: 10;
        stroke-width: 30px;
      }

      .cls-3 {
        fill: #d30000;
      }
    </style>
  </defs>
  <title>Stoke</title>
  <g id="Layer_2" data-name="Layer 2">
    <g id="Layer_1-2" data-name="Layer 1">
      <g>
        <path class="cls-1" d="M318,38.37V233.61c0,83.66-67.17,152.67-150.84,153A151.43,151.43,0,0,1,15,235.18V38.38A23.37,23.37,0,0,1,38.38,15H294.63A23.38,23.38,0,0,1,318,38.37Z"/>
        <path class="cls-2" d="M318,38.37V233.61c0,83.66-67.17,152.67-150.84,153A151.43,151.43,0,0,1,15,235.18V38.38A23.37,23.37,0,0,1,38.38,15H294.63A23.38,23.38,0,0,1,318,38.37Z"/>
        <path class="cls-3" d="M99,77.56V303.82a9.55,9.55,0,0,1-14,8.46C66.19,302.1,49.74,282.92,38.8,258.2a9.49,9.49,0,0,1-.8-3.84V77.56A9.56,9.56,0,0,1,47.56,68H89.44A9.56,9.56,0,0,1,99,77.56Z"/>
        <path class="cls-3" d="M232,72.56V303.69a9.55,9.55,0,0,0,14.1,8.42c18.77-10.43,35.2-30,46.13-55.3A9.51,9.51,0,0,0,293,253V72.56A9.56,9.56,0,0,0,283.44,63H241.56A9.56,9.56,0,0,0,232,72.56Z"/>
        <rect class="cls-3" x="135.45" y="83.28" width="61" height="192.93" rx="9.56" ry="9.56"/>
      </g>
    </g>
  </g>
</svg>
