<svg xmlns="http://www.w3.org/2000/svg" viewBox="0 0 330 370.84">
  <defs>
    <style>
      .cls-1 {
        fill: #dc3522;
      }

      .cls-2 {
        fill: #fff;
      }

      .cls-3 {
        fill: #a38400;
      }
    </style>
  </defs>
  <title>Sunderland</title>
  <g id="Layer_2" data-name="Layer 2">
    <g id="Layer_1-2" data-name="Layer 1">
      <g>
        <path class="cls-1" d="M330,20.18v222q0,3.37-.27,6.67a81.27,81.27,0,0,1-46.67,66.84L264,324.54l-.21.1-.07,0L198,355.33l-.28.13L164.9,370.77l-.14.07-33-15.41-66-30.79-19.07-9a80.56,80.56,0,0,1-40-41.16.39.39,0,0,0,0-.1l-.53-1.26c-.19-.43-.36-.87-.54-1.32q-.51-1.32-1-2.67c-.24-.69-.48-1.39-.7-2.09l-.2-.62q-.31-1-.59-2c-.21-.72-.41-1.43-.58-2.16a1.29,1.29,0,0,1-.06-.22c-.21-.8-.4-1.61-.57-2.41q-.33-1.47-.59-2.94-.15-.76-.26-1.52l-.23-1.53c-.15-1-.29-2.1-.4-3.16L.3,249.08c0-.5-.09-1-.12-1.49-.07-1.07-.12-2.13-.14-3.2q0-1.11,0-2.21v-222C0,8.65,9.07,0,20.59,0H308.86a20.89,20.89,0,0,1,20.87,17.18A16.83,16.83,0,0,1,330,20.18Z"/>
        <g>
          <path class="cls-2" d="M330,20.18V248.85c-2.2,28.84-20.27,54.45-46.81,66.84l-19.19,9V0h44.86a20.89,20.89,0,0,1,20.87,17.18A16.83,16.83,0,0,1,330,20.18Z"/>
          <polygon class="cls-2" points="198 0 198 355.46 165.03 370.84 164.9 370.77 132 355.43 132 0 198 0"/>
          <path class="cls-2" d="M66,0V324.64l-19.19-9A81.16,81.16,0,0,1,6.72,274.52a.39.39,0,0,0,0-.1l-.53-1.26c-.19-.43-.36-.87-.54-1.32q-.51-1.32-1-2.67c-.24-.69-.48-1.39-.7-2.09l-.2-.62q-.31-1-.59-2c-.21-.72-.41-1.43-.58-2.16a1.29,1.29,0,0,1-.06-.22c-.21-.8-.4-1.61-.57-2.41q-.33-1.47-.59-2.94-.15-.76-.26-1.52l-.23-1.53c-.15-1-.29-2.1-.4-3.16L.3,249.08c0-.5-.09-1-.12-1.49-.07-1.07-.12-2.13-.14-3.2q0-1.11,0-2.21v-222C0,8.65,9.07,0,20.59,0Z"/>
        </g>
        <g>
          <path class="cls-3" d="M170,52.24,265.9,96.48c11.56,5.33,7.76,22.65-5,22.65H69.07c-12.73,0-16.53-17.32-5-22.65L160,52.24A11.87,11.87,0,0,1,170,52.24Z"/>
          <g>
            <rect class="cls-3" x="204.74" y="131.68" width="46.02" height="121.32" rx="7.1" ry="7.1"/>
            <rect class="cls-3" x="141.99" y="131.68" width="46.02" height="121.32" rx="7.1" ry="7.1"/>
            <rect class="cls-3" x="79.24" y="131.68" width="46.02" height="121.32" rx="7.1" ry="7.1"/>
          </g>
        </g>
      </g>
    </g>
  </g>
</svg>
