<svg xmlns="http://www.w3.org/2000/svg" viewBox="0 0 370.6 370.6">
  <defs>
    <style>
      .cls-1 {
        fill: none;
        stroke: #fff;
        stroke-miterlimit: 10;
        stroke-width: 33px;
      }

      .cls-2 {
        fill: #fff;
      }
    </style>
  </defs>
  <title>Swansea</title>
  <g id="Layer_2" data-name="Layer 2">
    <g id="Layer_1-2" data-name="Layer 1">
      <g>
        <circle cx="185.3" cy="185.3" r="168.8"/>
        <circle class="cls-1" cx="185.3" cy="185.3" r="168.8"/>
        <g>
          <path class="cls-2" d="M153.93,260.89s.75-.42,2.17-1.09,3.52-1.6,6.06-2.74c1.28-.6,2.67-1.14,4.19-1.81s3.15-1.36,4.87-2.07c3.43-1.48,7.24-3,11.21-4.8s8.13-3.62,12.19-5.72a102.13,102.13,0,0,0,11.67-6.86c.9-.62,1.8-1.26,2.64-1.91s1.68-1.33,2.51-2c1.61-1.36,3.13-2.76,4.57-4.22a69.1,69.1,0,0,0,8-10c2.58-3.85,5.12-8.35,8.14-13.53l2.39-4c.85-1.36,1.75-2.76,2.71-4.19a73,73,0,0,1,6.83-8.71c.7-.73,1.38-1.45,2.1-2.15s1.49-1.39,2.29-2.06,1.59-1.33,2.44-2,1.69-1.23,2.61-1.77a39.53,39.53,0,0,1,21.71-6.21,46.8,46.8,0,0,1,8.93.92,57.38,57.38,0,0,1,13.52,4.65,69.45,69.45,0,0,1,9.11,5.31,58.48,58.48,0,0,1,5.37,4.13c1.2,1,1.81,1.62,1.81,1.62s-.84.22-2.37.52c-.77.16-1.7.34-2.79.53s-2.33.45-3.7.68l-4.47.81-5.08,1a89.28,89.28,0,0,0-11,2.87,26.34,26.34,0,0,0-9,4.88c-2.1,2-3.12,3.87-4.7,7s-3.35,7.63-5.7,13a116,116,0,0,1-9.4,17.77,73.49,73.49,0,0,1-15.54,17,67.55,67.55,0,0,1-19.44,10.62,75.81,75.81,0,0,1-18.91,4,84.46,84.46,0,0,1-16.39-.18,90.33,90.33,0,0,1-23.19-5.52l-1.91-.73c-.6-.24-1.14-.51-1.65-.73-1-.45-1.89-.87-2.59-1.22C154.68,261.31,153.93,260.89,153.93,260.89Z"/>
          <path class="cls-2" d="M106.49,225.54s.75-.42,2.17-1.09,3.52-1.6,6.06-2.74c1.28-.6,2.67-1.14,4.19-1.81s3.15-1.36,4.87-2.07c3.43-1.48,7.24-3,11.21-4.8s8.13-3.62,12.19-5.72a102.13,102.13,0,0,0,11.67-6.86c.9-.62,1.8-1.26,2.64-1.91s1.68-1.33,2.51-2c1.61-1.36,3.13-2.76,4.57-4.22a69.1,69.1,0,0,0,8-10c2.58-3.85,5.12-8.35,8.14-13.53l2.39-4c.85-1.36,1.75-2.76,2.71-4.19a73,73,0,0,1,6.83-8.71c.7-.73,1.38-1.45,2.1-2.15s1.49-1.39,2.29-2.06,1.59-1.33,2.44-2,1.69-1.23,2.61-1.77a39.53,39.53,0,0,1,21.71-6.21,46.8,46.8,0,0,1,8.93.92,57.38,57.38,0,0,1,13.52,4.65,69.45,69.45,0,0,1,9.11,5.31,58.48,58.48,0,0,1,5.37,4.13c1.2,1,1.81,1.62,1.81,1.62s-.84.22-2.37.52c-.77.16-1.7.34-2.79.53s-2.33.45-3.7.68l-4.47.81-5.08,1a89.28,89.28,0,0,0-11,2.87,26.34,26.34,0,0,0-9,4.88c-2.1,2-3.12,3.87-4.7,7s-3.35,7.63-5.7,13a116,116,0,0,1-9.4,17.77,73.49,73.49,0,0,1-15.54,17A67.55,67.55,0,0,1,173.29,231a75.81,75.81,0,0,1-18.91,4,84.46,84.46,0,0,1-16.39-.18,90.33,90.33,0,0,1-23.19-5.52l-1.91-.73c-.6-.24-1.14-.51-1.65-.73-1-.45-1.89-.87-2.59-1.22C107.24,226,106.49,225.54,106.49,225.54Z"/>
          <path class="cls-2" d="M59,190.19s.75-.42,2.17-1.09,3.52-1.6,6.06-2.74c1.28-.6,2.67-1.14,4.19-1.81s3.15-1.36,4.87-2.07c3.43-1.48,7.24-3,11.21-4.8s8.13-3.62,12.19-5.72a102.13,102.13,0,0,0,11.67-6.86c.9-.62,1.8-1.26,2.64-1.91s1.68-1.33,2.51-2c1.61-1.36,3.13-2.76,4.57-4.22a69.1,69.1,0,0,0,8-10c2.58-3.85,5.12-8.35,8.14-13.53l2.39-4c.85-1.36,1.75-2.76,2.71-4.19a73,73,0,0,1,6.83-8.71c.7-.73,1.38-1.45,2.1-2.15s1.49-1.39,2.29-2.06,1.59-1.33,2.44-2,1.69-1.23,2.61-1.77a39.53,39.53,0,0,1,21.71-6.21,46.8,46.8,0,0,1,8.93.92A57.38,57.38,0,0,1,202.76,108a69.45,69.45,0,0,1,9.11,5.31,58.48,58.48,0,0,1,5.37,4.13c1.2,1,1.81,1.62,1.81,1.62s-.84.22-2.37.52c-.77.16-1.7.34-2.79.53s-2.33.45-3.7.68l-4.47.81-5.08,1a89.28,89.28,0,0,0-11,2.87,26.34,26.34,0,0,0-9,4.88c-2.1,2-3.12,3.87-4.7,7s-3.35,7.63-5.7,13a116,116,0,0,1-9.4,17.77,73.49,73.49,0,0,1-15.54,17,67.55,67.55,0,0,1-19.44,10.62,75.81,75.81,0,0,1-18.91,4,84.46,84.46,0,0,1-16.39-.18A90.33,90.33,0,0,1,67.36,194l-1.91-.73c-.6-.24-1.14-.51-1.65-.73-1-.45-1.89-.87-2.59-1.22C59.8,190.62,59,190.19,59,190.19Z"/>
        </g>
      </g>
    </g>
  </g>
</svg>
