<svg xmlns="http://www.w3.org/2000/svg" viewBox="0 0 340.95 370.26">
  <defs>
    <style>
      .cls-1 {
        fill: #fff;
      }

      .cls-2 {
        fill: #001c58;
      }
    </style>
  </defs>
  <title>Tottenham</title>
  <g id="Layer_2" data-name="Layer 2">
    <g id="Layer_1-2" data-name="Layer 1">
      <g>
        <path class="cls-1" d="M341,55.4l-1.81,11.13c-2.12,13-3.59,26.72-5.14,41.2C329.26,151.91,323.87,202,297.24,251q-1.15,2.11-2.36,4.22t-2.42,4.18a248.67,248.67,0,0,1-23.76,33.26q-1.73,2-3.52,4.08t-3.69,4.1c-1.24,1.36-2.51,2.71-3.81,4.06s-2.6,2.7-3.95,4-2.53,2.52-3.84,3.78q-2.93,2.83-6,5.64-2.05,1.88-4.17,3.74-2.48,2.18-5.06,4.35a379.33,379.33,0,0,1-59.2,40.62l-5.41,3.14H170l-5.07-3.48C103,326.17,61.15,282,37.12,231.82,16,187.71,11.32,146,6.83,105.8c-1.52-13.65-3-26.56-5-39.25L0,55.41l11.25-.68C73,51.06,123.11,34.58,164.47,4.39l6-4.39,6,4.39c40.72,29.73,89.95,46.15,150.39,50.16l2.83.18Z"/>
        <g>
          <path class="cls-2" d="M329.7,54.73l-2.83-.18c-60.45-4-109.67-20.43-150.39-50.16l-6-4.39-6,4.39C123.11,34.58,73,51.05,11.25,54.73L0,55.4,1.81,66.53c2.06,12.69,3.5,25.58,5,39.23,4.49,40.25,9.13,81.87,30.29,126C61.15,281.89,103,326,164.89,366.61l5.07,3.32.1.07,5.39-3a377.73,377.73,0,0,0,59.22-40.49q2.58-2.17,5.06-4.35c1.41-1.24,2.8-2.49,4.17-3.74q3.07-2.8,6-5.64,2-1.89,3.84-3.78c1.35-1.34,2.66-2.69,3.95-4s2.56-2.7,3.81-4.06,2.48-2.73,3.69-4.1,2.37-2.72,3.52-4.08a248.67,248.67,0,0,0,23.76-33.26q1.24-2.09,2.42-4.18t2.36-4.22c26.63-49.06,32-99.14,36.76-143.32,1.56-14.49,3-28.17,5.14-41.2L341,55.4Zm-15.95,50.83c-8.48,79-18.08,168.33-142.87,240.6C115,308.61,77.2,268.26,55.47,222.94c-19.66-41-24.11-80.88-28.41-119.45-1.12-10-2.2-19.69-3.52-29.25,57.88-4.94,106.11-21.08,146.93-49.16,40.82,28.08,89.05,44.22,146.94,49.16C316,84.36,314.92,94.74,313.76,105.56Z"/>
          <path d="M329.7,54.73l-2.83-.18c-60.45-4-109.67-20.43-150.39-50.16l-6-4.39-6,4.39C123.11,34.58,73,51.05,11.25,54.73L0,55.4,1.81,66.53c2.06,12.69,3.5,25.58,5,39.23,4.49,40.25,9.13,81.87,30.29,126C61.15,281.89,103,326,164.89,366.61l5.07,3.32.1.07,5.39-3a377.73,377.73,0,0,0,59.22-40.49q2.58-2.17,5.06-4.35c1.41-1.24,2.8-2.49,4.17-3.74q3.07-2.8,6-5.64,2-1.89,3.84-3.78c1.35-1.34,2.66-2.69,3.95-4s2.56-2.7,3.81-4.06,2.48-2.73,3.69-4.1,2.37-2.72,3.52-4.08a248.67,248.67,0,0,0,23.76-33.26q1.24-2.09,2.42-4.18t2.36-4.22c26.63-49.06,32-99.14,36.76-143.32,1.56-14.49,3-28.17,5.14-41.2L341,55.4Zm-15.95,50.83c-8.48,79-18.08,168.33-142.87,240.6C115,308.61,77.2,268.26,55.47,222.94c-19.66-41-24.11-80.88-28.41-119.45-1.12-10-2.2-19.69-3.52-29.25,57.88-4.94,106.11-21.08,146.93-49.16,40.82,28.08,89.05,44.22,146.94,49.16C316,84.36,314.92,94.74,313.76,105.56Z"/>
        </g>
        <g>
          <circle class="cls-2" cx="179.79" cy="266.81" r="43.65"/>
          <path class="cls-2" d="M167.88,169.59a35.71,35.71,0,0,1,0-71.43"/>
          <path class="cls-2" d="M171.85,157.68a28.77,28.77,0,0,1,57.54,0"/>
          <path class="cls-2" d="M209.55,146.77a28.77,28.77,0,0,1-57.54,0"/>
          <g>
            <path class="cls-2" d="M135.88,76.1a14,14,0,1,0,28,0"/>
            <path class="cls-2" d="M160.2,81.42a14,14,0,1,0-28,0"/>
            <path class="cls-2" d="M140.1,81.13a21.66,21.66,0,1,1,43.32,0"/>
          </g>
          <rect class="cls-2" x="154.17" y="81.13" width="29.25" height="84.99"/>
          <rect class="cls-2" x="162.11" y="160.49" width="29.25" height="84.99"/>
        </g>
      </g>
    </g>
  </g>
</svg>
