<svg xmlns="http://www.w3.org/2000/svg" viewBox="0 0 410.62 389.98">
  <defs>
    <style>
      .cls-1 {
        fill: #ffe500;
      }

      .cls-2 {
        fill: none;
        stroke: #ed1c24;
        stroke-miterlimit: 10;
        stroke-width: 30px;
      }

      .cls-3 {
        fill: #ed1c24;
      }
    </style>
  </defs>
  <title>Watford</title>
  <g id="Layer_2" data-name="Layer 2">
    <g id="Layer_1-2" data-name="Layer 1">
      <g>
        <g>
          <path d="M334.95,39.38l58.87,178a35.54,35.54,0,0,1-13,40.05L225.93,368.34a35.54,35.54,0,0,1-41.29.07l-154.69-110a35.54,35.54,0,0,1-13.16-40.08l58.9-178.9A35.54,35.54,0,0,1,109.45,15H301.21A35.54,35.54,0,0,1,334.95,39.38Z"/>
          <path class="cls-1" d="M204.26,16v358.6a32.37,32.37,0,0,1-20.15-6.58l-154.43-110a35.47,35.47,0,0,1-13-40.08l59-178.21C80.41,25.2,94.08,16,109.44,16Z"/>
          <path class="cls-2" d="M334.95,39.38l58.87,178a35.54,35.54,0,0,1-13,40.05L225.93,368.34a35.54,35.54,0,0,1-41.29.07l-154.69-110a35.54,35.54,0,0,1-13.16-40.08l58.9-178.9A35.54,35.54,0,0,1,109.45,15H301.21A35.54,35.54,0,0,1,334.95,39.38Z"/>
        </g>
        <g>
          <ellipse class="cls-3" cx="205.9" cy="229.73" rx="34.62" ry="45.38"/>
          <ellipse class="cls-3" cx="205.9" cy="270.67" rx="17.31" ry="22.69"/>
          <ellipse class="cls-3" cx="205.9" cy="175.46" rx="50.34" ry="55.3"/>
          <g>
            <path class="cls-3" d="M148.81,199.38a21.92,21.92,0,0,1-11.36-28.22l19.5,8.38,8.62-20.07C175.89,163.9,181.73,177,177,187.94A21.49,21.49,0,0,1,148.81,199.38Z"/>
            <path class="cls-3" d="M262.52,199.38a21.92,21.92,0,0,0,11.36-28.22l-19.5,8.38-8.62-20.07c-10.32,4.43-16.15,17.52-11.44,28.47A21.49,21.49,0,0,0,262.52,199.38Z"/>
          </g>
          <path class="cls-3" d="M202.31,107.36,209,134a9.53,9.53,0,0,1-9.24,11.86H186.35A9.53,9.53,0,0,1,177.11,134l6.73-26.64C186.26,97.77,199.89,97.77,202.31,107.36Z"/>
          <path class="cls-3" d="M227.66,107.36,234.39,134a9.53,9.53,0,0,1-9.24,11.86H211.7A9.53,9.53,0,0,1,202.46,134l6.73-26.64C211.61,97.77,225.24,97.77,227.66,107.36Z"/>
          <g>
            <path class="cls-3" d="M243.89,89.35l-8.44,30.78a30,30,0,0,0,36.58,37l30.87-8.08a21.72,21.72,0,0,0,11.94-34,8,8,0,0,0-4.68-2.91l-14.9-3.31a14.74,14.74,0,0,1-11.21-11.31l-3.21-15.06A8,8,0,0,0,278,77.81,21.72,21.72,0,0,0,243.89,89.35Z"/>
            <path class="cls-3" d="M167.84,89.35l8.44,30.78a30,30,0,0,1-36.58,37l-30.87-8.08a21.72,21.72,0,0,1-11.94-34,8,8,0,0,1,4.68-2.91l14.9-3.31a14.74,14.74,0,0,0,11.21-11.31l3.21-15.06a8,8,0,0,1,2.85-4.69A21.72,21.72,0,0,1,167.84,89.35Z"/>
          </g>
        </g>
      </g>
    </g>
  </g>
</svg>
