<svg xmlns="http://www.w3.org/2000/svg" viewBox="0 0 295 380">
  <defs>
    <style>
      .cls-1 {
        fill: #091453;
      }

      .cls-2 {
        fill: #fff;
      }

      .cls-3 {
        fill: #4f3c00;
      }

      .cls-4 {
        fill: #00aa4a;
      }
    </style>
  </defs>
  <title>West Brom</title>
  <g id="Layer_2" data-name="Layer 2">
    <g id="Layer_1-2" data-name="Layer 1">
      <g>
        <path class="cls-1" d="M295,0V231.47a148.11,148.11,0,0,1-101.41,141l-.53.18a145.59,145.59,0,0,1-34.39,6.88c-1.72.15-3.44.25-5.19.31-2,.09-4,.12-6,.12a142.3,142.3,0,0,1-36.5-4.61l-.37-.09A148,148,0,0,1,0,231.47V0Z"/>
        <path class="cls-2" d="M295,0V80H194V372.69a156.62,156.62,0,0,1-35.12,6.88c-1.72.15-3.55.25-5.3.31-2,.09-4,.12-6,.12a148.68,148.68,0,0,1-18.61-1.17A146.89,146.89,0,0,1,111,375.39V80H0V0Z"/>
        <path class="cls-3" d="M269.78,232.33l-7,17.08L254.42,246l-3.9,9.59L200.25,235a36,36,0,0,1-5.81,2.7c-4.42,8.23-14.07,13.37-26.36,15l-6.94,18.47-5.78-2.18,6-15.79q-1.34,0-2.67,0l-6.73,18-5.78-2.18,6.08-16.1A97,97,0,0,1,126,246.4c-22.77-9-39.3-24.61-43.72-39.55l-.09,0-9.49-41.73L53.59,155l16-3.07-9-13.89,23.29,7.68a20.51,20.51,0,0,1,34.87,14.63,21.63,21.63,0,0,1-.15,2.49c13.3-3.5,31-2.09,48.79,4.92,23.41,9.22,40.22,25.47,44.06,40.77Z"/>
        <path class="cls-4" d="M181.1,294.6c-1.12,36-18.31,53.44-52.17,51.51C130,310.11,147.21,292.7,181.1,294.6Z"/>
      </g>
    </g>
  </g>
</svg>
