<svg xmlns="http://www.w3.org/2000/svg" viewBox="0 0 325.68 370">
  <defs>
    <style>
      .cls-1 {
        fill: #39b9fa;
      }

      .cls-2 {
        fill: #7e2b3a;
      }

      .cls-3 {
        fill: #f6d921;
      }
    </style>
  </defs>
  <title>West Ham</title>
  <g id="Layer_2" data-name="Layer 2">
    <g id="Layer_1-2" data-name="Layer 1">
      <g id="West_Ham" data-name="West Ham">
        <g>
          <path class="cls-1" d="M150.75,366.79C91.37,332.89,9.75,270.28.19,196.39A24.6,24.6,0,0,1,0,193.24V36.38A24.48,24.48,0,0,1,20.37,12.27a833.59,833.59,0,0,1,284.94,0,24.48,24.48,0,0,1,20.37,24.11V193.24a24.6,24.6,0,0,1-.19,3.15c-9.55,73.89-91.18,136.49-150.56,170.4A24.38,24.38,0,0,1,150.75,366.79Z"/>
          <path class="cls-2" d="M152.16,345.58c-52.45-29.95-124.55-85.24-133-150.51a21.73,21.73,0,0,1-.17-2.79V53.72a21.62,21.62,0,0,1,18-21.3,736.32,736.32,0,0,1,251.69,0,21.62,21.62,0,0,1,18,21.3V192.28a21.73,21.73,0,0,1-.17,2.79c-8.44,65.27-80.54,120.57-133,150.51A21.54,21.54,0,0,1,152.16,345.58Z"/>
        </g>
        <g>
          <g>
            <path class="cls-3" d="M260.34,108.92,253,101.58a4.8,4.8,0,0,0-6.72-.06L87.94,254a7.7,7.7,0,0,0-.1,11L97,274.08a7.7,7.7,0,0,0,11-.1L260.4,115.64A4.8,4.8,0,0,0,260.34,108.92Z"/>
            <path class="cls-3" d="M278.31,178.2l-43.25-18-.41-.29-50.31-50.31,31.12-31.12,50.47,50.47,0,.35,17.84,43.45A4.2,4.2,0,0,1,278.31,178.2Z"/>
          </g>
          <g>
            <path class="cls-3" d="M65.34,108.92l7.35-7.35a4.8,4.8,0,0,1,6.72-.06L237.74,254a7.7,7.7,0,0,1,.1,11l-9.13,9.13a7.7,7.7,0,0,1-11-.1L65.28,115.64A4.8,4.8,0,0,1,65.34,108.92Z"/>
            <path class="cls-3" d="M47.37,178.2l43.25-18,.41-.29,50.31-50.31L110.22,78.47,59.75,128.94l0,.35L41.89,172.74A4.2,4.2,0,0,0,47.37,178.2Z"/>
          </g>
        </g>
      </g>
    </g>
  </g>
</svg>
