<svg xmlns="http://www.w3.org/2000/svg" viewBox="0 0 257.74 260">
  <defs>
    <style>
      .cls-1 {
        fill: #2ecc71;
      }
    </style>
  </defs>
  <title>Corner won</title>
  <g id="Layer_2" data-name="Layer 2">
    <g id="Layer_1-2" data-name="Layer 1">
      <path class="cls-1" d="M257,186.5a6.56,6.56,0,0,0-8.85-2.77L201.39,208c-21.23-19.14-43.53-29.51-67.53-30.89V86.73L235.49,54.32a8,8,0,0,0,1.51-.64,6,6,0,0,0,.89-.6c.11-.09.25-.19.36-.28s.34-.34.49-.51a7.16,7.16,0,0,0,.57-.81,3.4,3.4,0,0,0,.24-.44,7.8,7.8,0,0,0,.39-.94s0,0,0,0a6.64,6.64,0,0,0,0-4,7.78,7.78,0,0,0-.39-.94c-.08-.15-.15-.29-.24-.44a7,7,0,0,0-.57-.8,6,6,0,0,0-.83-.84,7.1,7.1,0,0,0-.81-.57,2.44,2.44,0,0,0-.44-.24,7.81,7.81,0,0,0-.94-.39,1.78,1.78,0,0,0-.24,0L133.86,9.41V6.55c0-3.62-2.38-6.55-6-6.55s-6,2.94-6,6.55V177.29c-23,1.87-45,12.07-66.07,30.42l-46.1-24A6.67,6.67,0,0,0,.75,186.5a6.56,6.56,0,0,0,2.73,8.85l54.67,28.57,67.66,35.34a6.56,6.56,0,0,0,6.07,0l66.78-34.88,55.57-29A6.57,6.57,0,0,0,257,186.5ZM133.86,23.18l77.86,24.89L133.86,73Zm-5,222.87L68.35,214.28c17.29-14.08,34.5-22.07,53.5-23.81v31.3c0,3.62,2.38,6.55,6,6.55s6-2.94,6-6.55V190.28c19,1.31,37.47,9.45,55.07,24.26Z"/>
    </g>
  </g>
</svg>
