<svg xmlns="http://www.w3.org/2000/svg" viewBox="0 0 279.56 193">
  <defs>
    <style>
      .cls-1, .cls-2, .cls-4 {
        fill: none;
        stroke: #2ecc71;
        stroke-miterlimit: 10;
      }

      .cls-1, .cls-2 {
        stroke-width: 23px;
      }

      .cls-2 {
        stroke-dasharray: 15 15;
      }

      .cls-3 {
        fill: #2ecc71;
      }

      .cls-4 {
        stroke-width: 24px;
      }
    </style>
  </defs>
  <title>Interception</title>
  <g id="Layer_2" data-name="Layer 2">
    <g id="Layer_1-2" data-name="Layer 1">
      <g>
        <g>
          <g>
            <line class="cls-1" x1="242.56" y1="99.5" x2="235.56" y2="99.5"/>
            <line class="cls-2" x1="220.56" y1="99.5" x2="108.56" y2="99.5"/>
            <line class="cls-1" x1="101.56" y1="99.5" x2="94.56" y2="99.5"/>
            <polygon class="cls-3" points="195.94 60 235.39 99 195.94 138 229.42 138 268.84 99 229.42 60 195.94 60"/>
          </g>
          <line class="cls-4" x1="267.56" y1="193" x2="267.56"/>
        </g>
        <path class="cls-3" d="M52.32,65.51a34.87,34.87,0,1,1-34.87,34.87A34.91,34.91,0,0,1,52.32,65.51m0-17.45a52.32,52.32,0,1,0,52.32,52.32A52.32,52.32,0,0,0,52.32,48.06Z"/>
      </g>
    </g>
  </g>
</svg>
