<svg xmlns="http://www.w3.org/2000/svg" xmlns:xlink="http://www.w3.org/1999/xlink" viewBox="0 0 300 253.67">
  <defs>
    <style>
      .cls-1 {
        fill: none;
      }

      .cls-2 {
        clip-path: url(#clip-path);
      }

      .cls-3 {
        opacity: 0.5;
      }

      .cls-4 {
        fill: #2ecc71;
      }
    </style>
    <clipPath id="clip-path" transform="translate(-0.01 0.01)">
      <rect class="cls-1" width="300" height="253.67"/>
    </clipPath>
  </defs>
  <title>Key Pass</title>
  <g id="Layer_2" data-name="Layer 2">
    <g id="Layer_1-2" data-name="Layer 1">
      <g class="cls-2">
        <g class="cls-2">
          <g class="cls-2">
            <g class="cls-3">
              <g class="cls-2">
                <path class="cls-4" d="M267.65,164.45C247.82,147.12,217.91,121,189,74.73c-2.28-4.22-16.23-28.12-36.39-28.12a26.68,26.68,0,0,0-15.58,5.14c-3.41,2.38-7.57,3.56-12.7,3.56-11.14,0-21.85-5.62-21.89-5.63s-17.39-10-13.05-18.06c4.87-9,3.51-22.18-8.61-28.73A23.58,23.58,0,0,0,69.6,0C53.7,0,38,16,18.59,52L3.93,79.18A36.14,36.14,0,0,0,0,94.3c-.36,11.77,5.57,21.56,16.72,27.55l8.54,4.6L20.67,135a10.9,10.9,0,1,0,19.19,10.32l4.6-8.54c5.2,2.79,10.95,5.9,17.1,9.21L57,154.54a10.89,10.89,0,0,0,19.18,10.34l4.6-8.55,53.38,28.75-4.6,8.55A10.89,10.89,0,0,0,148.69,204l4.6-8.55c7.94,4.26,15.7,8.46,23.15,12.47l-4.6,8.55A10.9,10.9,0,0,0,191,226.76l4.6-8.54,20.12,10.83-4.6,8.55a10.89,10.89,0,0,0,19.18,10.34l4.62-8.55,8.54,4.6c1.31.71,13.18,6.9,25.79,6.9,11.61,0,20.83-5.25,26-14.8a47.47,47.47,0,0,0-4.17-48.41c-5-7.13-13.13-14.23-23.4-23.24m-122.17,2,51.43-43c5.82,7.24,11.53,13.84,17.07,19.85l-43.68,36.5c-8.13-4.36-16.45-8.87-24.82-13.37m44-52.57L134,160.29,109.2,146.93l65.27-54.55q7.53,11.57,15,21.52M23.15,89.44,37.77,62.31C59.35,22.27,69.18,21.8,69.6,21.8a1.08,1.08,0,0,1,.34.05c-5.87,11.47-3.34,24.28,7,35.27A65.61,65.61,0,0,0,92.1,68.84c1.56.85,15.8,8.26,32.25,8.26,9.64,0,18.12-2.54,25.23-7.53a5.13,5.13,0,0,1,3-1.18c4.52,0,11.17,7.22,15.37,13.63L97.72,140.74,81.51,132s0,0,0,0h0l-54.4-29.31c-6.86-3.69-5.92-9.21-3.92-13.23M276,225.86c-.86,1.6-2.22,3.27-6.73,3.27-6,0-13.23-3.12-15.45-4.3l-18.14-9.77-53.92-29,40.57-33.92c11.61,11.81,22.23,21.12,30.95,28.75,9.18,8,16.45,14.37,20,19.38A25.8,25.8,0,0,1,276,225.86" transform="translate(-0.01 0.01)"/>
              </g>
            </g>
          </g>
        </g>
      </g>
    </g>
  </g>
</svg>
