<svg xmlns="http://www.w3.org/2000/svg" viewBox="0 0 300 142.99">
  <defs>
    <style>
      .cls-1 {
        fill: #2ecc71;
      }
    </style>
  </defs>
  <title>Penalty saved</title>
  <g id="Layer_2" data-name="Layer 2">
    <g id="Layer_1-2" data-name="Layer 1">
      <g>
        <g>
          <path class="cls-1" d="M123.13,117.18a1.69,1.69,0,0,1-.39.34c-3.91,1.62-7.8,3.28-11.74,4.81a3.4,3.4,0,0,1-3.75-.83c-.81-.78-.67-1.21.34-1.62,3.46-1.4,6.91-2.84,10.36-4.26l.12-.06C120.74,114.45,121.29,114.62,123.13,117.18Z"/>
          <path class="cls-1" d="M109.74,123.19a4.17,4.17,0,0,1-2.92-1.25,1.75,1.75,0,0,1-.69-1.5c.12-.62.72-.94,1.23-1.15,2.47-1,4.93-2,7.39-3l3-1.23.13-.06c2.92-1.21,3.78-.93,5.78,1.84l.33.46-.42.37-.08.08a1.43,1.43,0,0,1-.48.36l-2.73,1.14c-2.95,1.23-6,2.5-9,3.67A4.09,4.09,0,0,1,109.74,123.19Zm-2.37-2.51a1.75,1.75,0,0,0,.31.37,2.78,2.78,0,0,0,3.09.7c3-1.17,6.05-2.44,9-3.66l2.5-1c-1.37-1.84-1.74-1.84-4-.92l-.13.06-3,1.22c-2.46,1-4.93,2-7.4,3A1.85,1.85,0,0,0,107.37,120.68Z"/>
        </g>
        <g>
          <path class="cls-1" d="M96.85,97c-.53-1.91,0-3.47,1.78-4.3,4.09-1.88,8.28-3.54,12.72-5.41-.22,1.46-.37,2.64-.6,3.8,0,.24-.4.49-.67.6q-6.31,2.64-12.63,5.24A2.3,2.3,0,0,1,96.85,97Z"/>
          <path class="cls-1" d="M96.39,97.63l-.14-.5c-.64-2.32.11-4.11,2.12-5,2.91-1.33,5.82-2.54,8.91-3.82l3.82-1.59,1-.43L112,87.34c-.06.41-.12.79-.17,1.16-.14,1-.26,1.81-.43,2.67-.13.66-.95,1-1,1q-6.3,2.64-12.63,5.24a1.65,1.65,0,0,1-.58.1h-.19Zm14.18-9.38-2.82,1.17c-3.08,1.28-6,2.48-8.87,3.8a2.56,2.56,0,0,0-1.56,3q6.26-2.58,12.51-5.19a1,1,0,0,0,.31-.2c.16-.8.28-1.61.41-2.55Z"/>
        </g>
        <g>
          <path class="cls-1" d="M118.59,112.92l-12.71,5.27c-.2-.13-.25-.15-.27-.19-1.65-2.78-1.64-2.81,1.32-4,2.54-1,5.12-2,7.61-3.19,1.31-.62,2.25-.64,3,.7C117.81,111.93,118.17,112.34,118.59,112.92Z"/>
          <path class="cls-1" d="M105.82,118.88l-.29-.18-.16-.1a.79.79,0,0,1-.3-.29c-.92-1.54-1.38-2.32-1.12-3.11s1.14-1.15,2.74-1.8l2.14-.87c1.8-.72,3.66-1.47,5.44-2.31,1.2-.56,2.71-1,3.81.95a8,8,0,0,0,.6.85l.4.54.46.64ZM116,111a2.91,2.91,0,0,0-1.16.35c-1.81.85-3.68,1.61-5.5,2.34l-2.13.87c-1,.4-2,.81-2,1.05a5.13,5.13,0,0,0,.88,1.87l11.6-4.81a7.92,7.92,0,0,1-.6-.87C116.7,111.25,116.4,111,116,111Z"/>
        </g>
        <g>
          <path class="cls-1" d="M110.58,93.95c.13,1.13.28,2,.29,2.91a1.16,1.16,0,0,1-.58.87q-5.21,2.23-10.47,4.33c-.27.11-.75-.26-1.1-.47-.13-.07-.14-.32-.22-.48-.81-1.9-.81-1.9,1-2.67l9.6-4C109.56,94.31,110,94.17,110.58,93.95Z"/>
          <path class="cls-1" d="M99.72,102.7a2.25,2.25,0,0,1-1.11-.45l-.19-.12a1,1,0,0,1-.44-.67.92.92,0,0,0,0-.1c-.48-1.12-.71-1.68-.48-2.25s.81-.81,1.85-1.24l9.61-4c.27-.11.55-.21.88-.33l1.3-.48.09.78c0,.33.08.63.11.92a17.75,17.75,0,0,1,.19,2,1.77,1.77,0,0,1-.95,1.45c-3.83,1.63-7.26,3.05-10.49,4.34A.89.89,0,0,1,99.72,102.7Zm-.55-1.56.09.06a3.81,3.81,0,0,0,.43.25c3.19-1.27,6.58-2.67,10.36-4.28a.71.71,0,0,0,.2-.31,17.2,17.2,0,0,0-.18-1.89l0-.16-.66.25-9.6,4a5.14,5.14,0,0,0-1.18.58,6.73,6.73,0,0,0,.47,1.28,2.07,2.07,0,0,1,.09.26Z"/>
        </g>
        <g>
          <path class="cls-1" d="M103.6,112.88c-1.87-2.78-1.82-3,1-4.15,2.59-1.06,5.19-2.09,7.74-3.22.88-.39,1.27-.18,1.67.62,1.19,2.42,1.26,1.93-1,2.89-2.74,1.17-5.5,2.29-8.25,3.41C104.41,112.6,104,112.73,103.6,112.88Z"/>
          <path class="cls-1" d="M103.36,113.63l-.27-.41c-1-1.51-1.58-2.4-1.32-3.24s1.16-1.22,2.63-1.83l1.92-.78c1.91-.78,3.89-1.58,5.8-2.43a1.65,1.65,0,0,1,2.48.91l.33.66c.45.89.68,1.33.49,1.83s-.61.65-1.33.93l-.78.32c-2.17.93-4.38,1.83-6.53,2.71l-1.73.71c-.27.11-.55.21-.82.31l-.41.15Zm9.71-7.7a1.28,1.28,0,0,0-.45.15c-1.93.86-3.92,1.66-5.84,2.44l-1.92.78c-.73.3-1.82.75-1.91,1s.42,1.07.9,1.79l.73-.28,1.74-.71c2.14-.87,4.35-1.78,6.51-2.7l.81-.33c.21-.08.44-.17.58-.24-.07-.18-.23-.5-.39-.8l-.34-.67C113.32,106.06,113.24,105.93,113.07,105.93Z"/>
        </g>
        <g>
          <polygon class="cls-1" points="300 142.99 277.71 142.99 277.71 22.29 22.29 22.29 22.29 142.99 0 142.99 0 0 300 0 300 142.99"/>
          <g>
            <g>
              <path class="cls-1" d="M199.36,52.15a4.52,4.52,0,0,1-1.19,7.46l-.05,0L166,74.07a2.51,2.51,0,0,0-1.33,3.2l0,.11a2.51,2.51,0,0,0,3.21,1.33L205.43,66l.3-.12a4.63,4.63,0,0,1,3,8.76l-.25.07L171.37,87.36a2.51,2.51,0,0,0-1.44,2.72,1.49,1.49,0,0,0,.14.55l.26.64a2.66,2.66,0,0,0,.4.47,2.31,2.31,0,0,0,2.12.39l33.33-8A4.52,4.52,0,0,1,208.12,93l-.48.08L189,97.21h0l-1.32.29a187,187,0,0,0-25.29,8.12c-.71.29-2.16,1-2.34,1a2.51,2.51,0,0,0,.06,4.67v0L176.84,119a7.15,7.15,0,0,1,1.83,1.2,7,7,0,0,1,1.77,2.51,6.22,6.22,0,0,1,.41,4s-.06.15-.06.15a3.21,3.21,0,0,1-4.13,1.87l-27.27-7.57h0l-4.84-1.34a49.55,49.55,0,0,1-17.33-9.8,35.37,35.37,0,0,1-4.34-4.7c-.4-.63-.8-1.27-1.18-1.94a40.87,40.87,0,0,1-2-4,21.51,21.51,0,0,1-1.56-7.27h0s0-.08,0-.12v0a20.43,20.43,0,0,1,1.91-9l0-.07c0-.11.11-.2.16-.31.29-.61.6-1.21.94-1.8l.08-.14c.37-.64.77-1.25,1.19-1.85l.29-.41c.43-.59.87-1.17,1.32-1.72h0c.47-.56.94-1.09,1.43-1.61l.3-.32.31-.33h0a32.48,32.48,0,0,1,5.88-5l4.75-3h0s18.39-11.45,18.43-11.47l20-12.38h0l.14-.11a4.11,4.11,0,0,1,4.37,7l-.13.06L157.9,62.63l-.07,0a2.33,2.33,0,0,0-.89,2.88l0,0a2.47,2.47,0,0,0,.62.87A2.52,2.52,0,0,0,160,67l34.4-15.59,0,0a4.52,4.52,0,0,1,4.88.78m3-3.35a9,9,0,0,0-9.77-1.55l-.19.09-7.93,3.59a8.63,8.63,0,0,0-11.58-12.36l-.34.24L152.8,51l0,0c-1.45.85-5.5,3.37-18.46,11.44l-.09.06-4.69,3-.09.06A36.24,36.24,0,0,0,123.14,71l-.25.24-.29.3-.07.08-.19.2-.1.11,0,0c-.59.63-1.12,1.23-1.6,1.81l-.1.12c-.45.55-.92,1.16-1.42,1.85l-.22.31-.09.12c-.56.8-1,1.51-1.41,2.19l-.11.2c-.37.65-.71,1.3-1.05,2-.08.16-.16.29-.22.44a3.86,3.86,0,0,0-.16.39,24.87,24.87,0,0,0-2.18,10.51c0,.07,0,.13,0,.2s0,.12,0,.18,0,.26,0,.39a26.33,26.33,0,0,0,1.86,8.43l.05.13a45.57,45.57,0,0,0,2.19,4.4c.36.64.78,1.33,1.31,2.15.06.1.14.21.21.3a40.26,40.26,0,0,0,4.9,5.3,54,54,0,0,0,18.94,10.74l.22.07,4.84,1.34.09,0,27,7.5a7.73,7.73,0,0,0,9.72-4.59h0l0,.08h0s.16-.41.2-.55a10.66,10.66,0,0,0-.57-7,11.46,11.46,0,0,0-2.91-4.13,11.62,11.62,0,0,0-3-2L165.94,109a187.42,187.42,0,0,1,22.71-7.13l1.29-.28.11,0,18.4-4.09.61-.11a9,9,0,0,0-.9-17.83l1.66-.57.35-.11a9.15,9.15,0,0,0-5.89-17.33l-.44.17-1.53.52a9,9,0,0,0,.09-13.47Z"/>
              <path class="cls-1" d="M177.82,134.11a8.41,8.41,0,0,1-2.73-.46l-32.18-8.94a54.64,54.64,0,0,1-19.16-10.87,41,41,0,0,1-5-5.38c-.09-.12-.17-.24-.24-.35-.53-.82-.95-1.51-1.32-2.17a46.18,46.18,0,0,1-2.22-4.46l0-.1A27,27,0,0,1,113,92.7c0-.1,0-.25,0-.4v-.2s0-.09,0-.15a25.54,25.54,0,0,1,2.24-10.8,3.55,3.55,0,0,1,.16-.41c.07-.15.15-.3.24-.47.35-.73.69-1.39,1.06-2l.12-.22c.41-.69.86-1.4,1.43-2.21l.17-.24.15-.21c.5-.7,1-1.31,1.44-1.88l.07-.09c.52-.63,1.05-1.23,1.65-1.87l.42-.44.3-.31.29-.27a36.72,36.72,0,0,1,6.41-5.43l.13-.08L134,62c11.7-7.29,16.26-10.13,18.07-11.21l.38-.27,19.8-12.24.34-.23A9.25,9.25,0,0,1,186,49.59l6.2-2.81.19-.09a9.66,9.66,0,0,1,10.44,1.66h0a9.67,9.67,0,0,1,1.5,12.58,9.77,9.77,0,0,1,6.11,18.56A9.66,9.66,0,0,1,209.18,98l-.66.12-19.75,4.38a186.56,186.56,0,0,0-21.24,6.58L179,114.31a12.25,12.25,0,0,1,3.16,2.08,12.09,12.09,0,0,1,3.07,4.35,11.3,11.3,0,0,1,.59,7.44c0,.12-.13.39-.18.52h0A8.3,8.3,0,0,1,177.82,134.11Zm-48.3-68.52.33.52a35.51,35.51,0,0,0-6.27,5.31l-.25.23-.27.29-.45.47c-.56.6-1.08,1.18-1.55,1.76l-.07.09c-.47.57-.92,1.17-1.42,1.85l-.3.43c-.55.78-1,1.46-1.38,2.14l-.1.18c-.36.63-.69,1.26-1,2-.09.17-.16.3-.22.43a3.14,3.14,0,0,0-.13.33,24.37,24.37,0,0,0-2.15,10.3V92s0,.07,0,.11v.2c0,.1,0,.22,0,.32a25.83,25.83,0,0,0,1.82,8.28l.06.15a45.14,45.14,0,0,0,2.14,4.3c.36.64.77,1.31,1.29,2.12l.19.27a39.66,39.66,0,0,0,4.81,5.21,53.4,53.4,0,0,0,18.72,10.61l.21.07,4.82,1.34.11,0,27,7.49a7.08,7.08,0,0,0,8.95-4.13h0s.14-.38.18-.51a10.07,10.07,0,0,0-.55-6.62,10.86,10.86,0,0,0-2.75-3.91,11,11,0,0,0-2.84-1.87L164.36,109l1.36-.53a186.82,186.82,0,0,1,22.8-7.16l1.36-.3,18.43-4.1.62-.11a8.42,8.42,0,0,0-.84-16.6l-2.75-.31,4.28-1.45.36-.11a8.53,8.53,0,0,0-5.5-16.15l-.4.15-4.48,1.52,2.31-2A8.42,8.42,0,0,0,202,49.26h0a8.42,8.42,0,0,0-9.1-1.45l-.16.08-10.06,4.56L184,50.57a8,8,0,0,0-10.75-11.48l-.3.21-19.32,12h0l-.52.35c-1.47.86-5.75,3.52-18.45,11.43l-4.78,3Zm48.28,64a3.82,3.82,0,0,1-1.35-.25l-32.06-8.89a50,50,0,0,1-17.58-9.94,36.2,36.2,0,0,1-4.42-4.78c-.37-.57-.81-1.28-1.23-2a41.54,41.54,0,0,1-2-4,22.34,22.34,0,0,1-1.6-7.25h0l0-.34V92a21.09,21.09,0,0,1,1.94-9.24l0-.12.11-.21.06-.11c.32-.68.64-1.28,1-1.84l.09-.16c.34-.58.74-1.2,1.21-1.88l.3-.42c.36-.5.68-.93,1-1.32h0l.36-.44c.44-.52.91-1.06,1.45-1.64l.42-.44.21-.22.14-.13a32.41,32.41,0,0,1,5.85-5l4.77-3c15.43-9.61,18-11.19,18.43-11.46h0l20-12.37.16-.12.4-.22,2.51-1.55L177,41.19a4.73,4.73,0,0,1,3,8.71l-.14.07L158.23,63.16l-.07,0a1.71,1.71,0,0,0-.65,2.12,1.89,1.89,0,0,0,2.31,1.09l34.37-15.58a5.15,5.15,0,0,1,5.59.86h0A5.07,5.07,0,0,1,201,53.4a5.14,5.14,0,0,1-2.59,6.78l-.07,0L166.21,74.63a1.89,1.89,0,0,0-1,2.42l0,.09a1.87,1.87,0,0,0,.45.62,1.89,1.89,0,0,0,2,.36l37.57-12.73.3-.12a5.25,5.25,0,1,1,3.38,9.94l-.23.07-37.1,12.65a1.88,1.88,0,0,0-1,2v.12h0a1.51,1.51,0,0,0,.1.3l.24.58a1.94,1.94,0,0,0,.27.31c.28.26.66.4,1.6.24l33.29-8a5.17,5.17,0,0,1,4.56,1.21,5.14,5.14,0,0,1-2.36,8.83l-.54.09-19.93,4.43a185.34,185.34,0,0,0-25.19,8.08c-.45.18-1.2.53-1.73.77l-.61.28a1.9,1.9,0,0,0-1,2.48,1.87,1.87,0,0,0,.47.67,1.93,1.93,0,0,0,.6.37l.43.17v0l16.37,7.47a7.76,7.76,0,0,1,2,1.31,7.55,7.55,0,0,1,1.92,2.73,6.8,6.8,0,0,1,.43,4.43s-.08.22-.08.22a3.83,3.83,0,0,1-3.57,2.46Zm-28.28-9h0l27.27,7.57a2.6,2.6,0,0,0,2,0,2.57,2.57,0,0,0,1.35-1.44l0-.1a5.7,5.7,0,0,0-.39-3.62,6.31,6.31,0,0,0-1.61-2.29,6.53,6.53,0,0,0-1.68-1.1l-17.16-7.83v0a3.15,3.15,0,0,1-.55-.4,3.1,3.1,0,0,1-.78-1.11,3.14,3.14,0,0,1,1.7-4.1l.57-.26c.54-.25,1.31-.6,1.77-.79a186.85,186.85,0,0,1,25.39-8.15l1.4-.3,18.6-4.13.49-.08a3.9,3.9,0,0,0,1.78-6.7,3.91,3.91,0,0,0-3.45-.92l-33.32,8a2.91,2.91,0,0,1-2.68-.53,3.23,3.23,0,0,1-.5-.58l-.06-.12-.26-.63a2.28,2.28,0,0,1-.19-.72,3.13,3.13,0,0,1,1.8-3.35l37.24-12.7.16,0a4,4,0,0,0-2.59-7.59l-.22.09-.08,0L168.08,79.3a3.13,3.13,0,0,1-4-1.66l-.05-.12a3.13,3.13,0,0,1,1.66-4L198,59a3.9,3.9,0,0,0,1.93-5.13,3.85,3.85,0,0,0-.93-1.29h0a3.9,3.9,0,0,0-4.21-.67l-34.5,15.64a3.15,3.15,0,0,1-3.07-.66,3.07,3.07,0,0,1-.78-1.09,3,3,0,0,1,1.1-3.67l.08-.05,21.67-13.2.14-.07a3.49,3.49,0,0,0-3.72-5.9l-.12.1-.14-.16.11.18L155.44,55.46l-18.33,11.4,0,0-4.75,3a31.92,31.92,0,0,0-5.77,4.95l-.26.26h0l-.36.38c-.46.49-.88,1-1.26,1.41l-.14.17c-.4.48-.81,1-1.3,1.69l-.29.4c-.45.65-.83,1.24-1.16,1.8l-.08.15c-.31.53-.6,1.1-.91,1.75l-.09.17,0,.08,0,.12A19.88,19.88,0,0,0,118.77,92v.15a21,21,0,0,0,1.52,7.07,40.3,40.3,0,0,0,1.93,3.89c.4.7.81,1.36,1.16,1.91a34.94,34.94,0,0,0,4.24,4.57,48.73,48.73,0,0,0,17.11,9.67Z"/>
            </g>
            <g>
              <path class="cls-1" d="M111.41,99.73l1.1,3.31-11.24,4.66c-.4-1-.78-1.76-1-2.6a.94.94,0,0,1,.34-.84C104.11,102.75,107.68,101.28,111.41,99.73Z"/>
              <path class="cls-1" d="M100.93,108.51l-.24-.57-.33-.78c-.27-.64-.53-1.24-.73-1.87a1.49,1.49,0,0,1,.69-1.6c2.86-1.22,5.7-2.4,8.7-3.64l2.77-1.15,1.49,4.49-.53.22-8.59,3.56Zm-.1-3.55c.18.55.42,1.11.67,1.7l.1.23,2.09-.87,8.05-3.34-.71-2.13-1.54.64c-3,1.23-5.77,2.39-8.6,3.6A.69.69,0,0,0,100.83,105Z"/>
            </g>
          </g>
        </g>
      </g>
    </g>
  </g>
</svg>
