<svg xmlns="http://www.w3.org/2000/svg" viewBox="0 0 279.27 193">
  <defs>
    <style>
      .cls-1, .cls-4 {
        fill: #c0392b;
      }

      .cls-2, .cls-3 {
        fill: none;
        stroke-width: 23px;
      }

      .cls-2, .cls-3, .cls-4 {
        stroke: #c0392b;
        stroke-miterlimit: 10;
      }

      .cls-3 {
        stroke-dasharray: 15 15;
      }

      .cls-4 {
        stroke-width: 24px;
      }
    </style>
  </defs>
  <title>Turnover</title>
  <g id="Layer_2" data-name="Layer 2">
    <g id="Layer_1-2" data-name="Layer 1">
      <g>
        <g>
          <g>
            <line class="cls-1" x1="10" y1="99" x2="185" y2="99"/>
            <g>
              <line class="cls-2" x1="37" y1="99.5" x2="44" y2="99.5"/>
              <line class="cls-3" x1="59" y1="99.5" x2="171" y2="99.5"/>
              <line class="cls-2" x1="178" y1="99.5" x2="185" y2="99.5"/>
              <polygon class="cls-1" points="83.33 138 43.89 99 83.33 60 49.86 60 10.44 99 49.86 138 83.33 138"/>
            </g>
          </g>
          <line class="cls-4" x1="12" y1="193" x2="12"/>
        </g>
        <path class="cls-1" d="M227,65.51a34.87,34.87,0,1,1-34.87,34.87A34.91,34.91,0,0,1,227,65.51m0-17.45a52.32,52.32,0,1,0,52.32,52.32A52.32,52.32,0,0,0,227,48.06Z"/>
      </g>
    </g>
  </g>
</svg>
